<?xml version="1.0" encoding="UTF-8" standalone="no"?><svg xmlns="http://www.w3.org/2000/svg" xmlns:xlink="http://www.w3.org/1999/xlink" clip-rule="evenodd" stroke-miterlimit="10" viewBox="0 0 407 376"><desc>SVG generated by Keynote</desc><defs></defs><g transform="matrix(1.00, 0.00, -0.00, -1.00, 0.0, 376.0)"><text xml:space="preserve" font-family="Monaco,Monaco" font-size="24.0" fill="#FEFFFE" transform="matrix(1.00, 0.00, -0.00, -1.00, 1.7, 355.0)">d</text><text xml:space="preserve" font-family="Monaco,Monaco" font-size="24.0" fill="#FEFFFE" transform="matrix(1.00, 0.00, -0.00, -1.00, 16.1, 355.0)">e</text><text xml:space="preserve" font-family="Monaco,Monaco" font-size="24.0" fill="#FEFFFE" transform="matrix(1.00, 0.00, -0.00, -1.00, 30.5, 355.0)">s</text><text xml:space="preserve" font-family="Monaco,Monaco" font-size="24.0" fill="#FEFFFE" transform="matrix(1.00, 0.00, -0.00, -1.00, 44.9, 355.0)">c</text><text xml:space="preserve" font-family="Monaco,Monaco" font-size="24.0" fill="#FEFFFE" transform="matrix(1.00, 0.00, -0.00, -1.00, 59.3, 355.0)">r</text><text xml:space="preserve" font-family="Monaco,Monaco" font-size="24.0" fill="#FEFFFE" transform="matrix(1.00, 0.00, -0.00, -1.00, 73.7, 355.0)">i</text><text xml:space="preserve" font-family="Monaco,Monaco" font-size="24.0" fill="#FEFFFE" transform="matrix(1.00, 0.00, -0.00, -1.00, 88.1, 355.0)">b</text><text xml:space="preserve" font-family="Monaco,Monaco" font-size="24.0" fill="#FEFFFE" transform="matrix(1.00, 0.00, -0.00, -1.00, 102.5, 355.0)">e</text><text xml:space="preserve" font-family="Monaco,Monaco" font-size="24.0" fill="#FEFFFE" transform="matrix(1.00, 0.00, -0.00, -1.00, 116.9, 355.0)"> </text><text xml:space="preserve" font-family="Monaco,Monaco" font-size="24.0" fill="#FEFFFE" transform="matrix(1.00, 0.00, -0.00, -1.00, 131.3, 355.0)">'</text><text xml:space="preserve" font-family="Monaco,Monaco" font-size="24.0" fill="#FEFFFE" transform="matrix(1.00, 0.00, -0.00, -1.00, 145.7, 355.0)">P</text><text xml:space="preserve" font-family="Monaco,Monaco" font-size="24.0" fill="#FEFFFE" transform="matrix(1.00, 0.00, -0.00, -1.00, 160.1, 355.0)">a</text><text xml:space="preserve" font-family="Monaco,Monaco" font-size="24.0" fill="#FEFFFE" transform="matrix(1.00, 0.00, -0.00, -1.00, 174.5, 355.0)">r</text><text xml:space="preserve" font-family="Monaco,Monaco" font-size="24.0" fill="#FEFFFE" transform="matrix(1.00, 0.00, -0.00, -1.00, 188.9, 355.0)">a</text><text xml:space="preserve" font-family="Monaco,Monaco" font-size="24.0" fill="#FEFFFE" transform="matrix(1.00, 0.00, -0.00, -1.00, 203.3, 355.0)">l</text><text xml:space="preserve" font-family="Monaco,Monaco" font-size="24.0" fill="#FEFFFE" transform="matrix(1.00, 0.00, -0.00, -1.00, 217.7, 355.0)">l</text><text xml:space="preserve" font-family="Monaco,Monaco" font-size="24.0" fill="#FEFFFE" transform="matrix(1.00, 0.00, -0.00, -1.00, 232.1, 355.0)">e</text><text xml:space="preserve" font-family="Monaco,Monaco" font-size="24.0" fill="#FEFFFE" transform="matrix(1.00, 0.00, -0.00, -1.00, 246.5, 355.0)">l</text><text xml:space="preserve" font-family="Monaco,Monaco" font-size="24.0" fill="#FEFFFE" transform="matrix(1.00, 0.00, -0.00, -1.00, 260.9, 355.0)"> </text><text xml:space="preserve" font-family="Monaco,Monaco" font-size="24.0" fill="#FEFFFE" transform="matrix(1.00, 0.00, -0.00, -1.00, 275.4, 355.0)">t</text><text xml:space="preserve" font-family="Monaco,Monaco" font-size="24.0" fill="#FEFFFE" transform="matrix(1.00, 0.00, -0.00, -1.00, 289.8, 355.0)">e</text><text xml:space="preserve" font-family="Monaco,Monaco" font-size="24.0" fill="#FEFFFE" transform="matrix(1.00, 0.00, -0.00, -1.00, 304.2, 355.0)">s</text><text xml:space="preserve" font-family="Monaco,Monaco" font-size="24.0" fill="#FEFFFE" transform="matrix(1.00, 0.00, -0.00, -1.00, 318.6, 355.0)">t</text><text xml:space="preserve" font-family="Monaco,Monaco" font-size="24.0" fill="#FEFFFE" transform="matrix(1.00, 0.00, -0.00, -1.00, 333.0, 355.0)">s</text><text xml:space="preserve" font-family="Monaco,Monaco" font-size="24.0" fill="#FEFFFE" transform="matrix(1.00, 0.00, -0.00, -1.00, 347.4, 355.0)">'</text><text xml:space="preserve" font-family="Monaco,Monaco" font-size="24.0" fill="#FEFFFE" transform="matrix(1.00, 0.00, -0.00, -1.00, 361.8, 355.0)"> </text><text xml:space="preserve" font-family="Monaco,Monaco" font-size="24.0" fill="#FEFFFE" transform="matrix(1.00, 0.00, -0.00, -1.00, 376.2, 355.0)">d</text><text xml:space="preserve" font-family="Monaco,Monaco" font-size="24.0" fill="#FEFFFE" transform="matrix(1.00, 0.00, -0.00, -1.00, 390.6, 355.0)">o</text><text xml:space="preserve" font-family="Monaco,Monaco" font-size="24.0" fill="#FEFFFE" transform="matrix(1.00, 0.00, -0.00, -1.00, 405.0, 355.0)">	</text><text xml:space="preserve" font-family="Monaco,Monaco" font-size="24.0" fill="#000000" transform="matrix(1.00, 0.00, -0.00, -1.00, 1.7, 291.0)"> </text><text xml:space="preserve" font-family="Monaco,Monaco" font-size="24.0" fill="#000000" transform="matrix(1.00, 0.00, -0.00, -1.00, 16.1, 291.0)"> </text><text xml:space="preserve" font-family="Monaco,Monaco" font-size="24.0" fill="#000000" transform="matrix(1.00, 0.00, -0.00, -1.00, 30.5, 291.0)">p</text><text xml:space="preserve" font-family="Monaco,Monaco" font-size="24.0" fill="#000000" transform="matrix(1.00, 0.00, -0.00, -1.00, 44.9, 291.0)">a</text><text xml:space="preserve" font-family="Monaco,Monaco" font-size="24.0" fill="#000000" transform="matrix(1.00, 0.00, -0.00, -1.00, 59.3, 291.0)">r</text><text xml:space="preserve" font-family="Monaco,Monaco" font-size="24.0" fill="#000000" transform="matrix(1.00, 0.00, -0.00, -1.00, 73.7, 291.0)">a</text><text xml:space="preserve" font-family="Monaco,Monaco" font-size="24.0" fill="#000000" transform="matrix(1.00, 0.00, -0.00, -1.00, 88.1, 291.0)">l</text><text xml:space="preserve" font-family="Monaco,Monaco" font-size="24.0" fill="#000000" transform="matrix(1.00, 0.00, -0.00, -1.00, 102.5, 291.0)">l</text><text xml:space="preserve" font-family="Monaco,Monaco" font-size="24.0" fill="#000000" transform="matrix(1.00, 0.00, -0.00, -1.00, 116.9, 291.0)">e</text><text xml:space="preserve" font-family="Monaco,Monaco" font-size="24.0" fill="#000000" transform="matrix(1.00, 0.00, -0.00, -1.00, 131.3, 291.0)">l</text><text xml:space="preserve" font-family="Monaco,Monaco" font-size="24.0" fill="#000000" transform="matrix(1.00, 0.00, -0.00, -1.00, 145.7, 291.0)">i</text><text xml:space="preserve" font-family="Monaco,Monaco" font-size="24.0" fill="#000000" transform="matrix(1.00, 0.00, -0.00, -1.00, 160.1, 291.0)">z</text><text xml:space="preserve" font-family="Monaco,Monaco" font-size="24.0" fill="#000000" transform="matrix(1.00, 0.00, -0.00, -1.00, 174.5, 291.0)">e</text><text xml:space="preserve" font-family="Monaco,Monaco" font-size="24.0" fill="#000000" transform="matrix(1.00, 0.00, -0.00, -1.00, 188.9, 291.0)">_</text><text xml:space="preserve" font-family="Monaco,Monaco" font-size="24.0" fill="#000000" transform="matrix(1.00, 0.00, -0.00, -1.00, 203.3, 291.0)">m</text><text xml:space="preserve" font-family="Monaco,Monaco" font-size="24.0" fill="#000000" transform="matrix(1.00, 0.00, -0.00, -1.00, 217.7, 291.0)">e</text><text xml:space="preserve" font-family="Monaco,Monaco" font-size="24.0" fill="#000000" transform="matrix(1.00, 0.00, -0.00, -1.00, 232.1, 291.0)">!</text><text xml:space="preserve" font-family="Monaco,Monaco" font-size="24.0" fill="#000000" transform="matrix(1.00, 0.00, -0.00, -1.00, 246.5, 291.0)">	</text><text xml:space="preserve" font-family="Monaco,Monaco" font-size="24.0" fill="#FEFFFE" transform="matrix(1.00, 0.00, -0.00, -1.00, 1.7, 227.0)"> </text><text xml:space="preserve" font-family="Monaco,Monaco" font-size="24.0" fill="#FEFFFE" transform="matrix(1.00, 0.00, -0.00, -1.00, 16.1, 227.0)"> </text><text xml:space="preserve" font-family="Monaco,Monaco" font-size="24.0" fill="#FEFFFE" transform="matrix(1.00, 0.00, -0.00, -1.00, 30.5, 227.0)">1</text><text xml:space="preserve" font-family="Monaco,Monaco" font-size="24.0" fill="#FEFFFE" transform="matrix(1.00, 0.00, -0.00, -1.00, 44.9, 227.0)">0</text><text xml:space="preserve" font-family="Monaco,Monaco" font-size="24.0" fill="#FEFFFE" transform="matrix(1.00, 0.00, -0.00, -1.00, 59.3, 227.0)">.</text><text xml:space="preserve" font-family="Monaco,Monaco" font-size="24.0" fill="#FEFFFE" transform="matrix(1.00, 0.00, -0.00, -1.00, 73.7, 227.0)">t</text><text xml:space="preserve" font-family="Monaco,Monaco" font-size="24.0" fill="#FEFFFE" transform="matrix(1.00, 0.00, -0.00, -1.00, 88.1, 227.0)">i</text><text xml:space="preserve" font-family="Monaco,Monaco" font-size="24.0" fill="#FEFFFE" transform="matrix(1.00, 0.00, -0.00, -1.00, 102.5, 227.0)">m</text><text xml:space="preserve" font-family="Monaco,Monaco" font-size="24.0" fill="#FEFFFE" transform="matrix(1.00, 0.00, -0.00, -1.00, 116.9, 227.0)">e</text><text xml:space="preserve" font-family="Monaco,Monaco" font-size="24.0" fill="#FEFFFE" transform="matrix(1.00, 0.00, -0.00, -1.00, 131.3, 227.0)">s</text><text xml:space="preserve" font-family="Monaco,Monaco" font-size="24.0" fill="#FEFFFE" transform="matrix(1.00, 0.00, -0.00, -1.00, 145.7, 227.0)"> </text><text xml:space="preserve" font-family="Monaco,Monaco" font-size="24.0" fill="#FEFFFE" transform="matrix(1.00, 0.00, -0.00, -1.00, 160.1, 227.0)">d</text><text xml:space="preserve" font-family="Monaco,Monaco" font-size="24.0" fill="#FEFFFE" transform="matrix(1.00, 0.00, -0.00, -1.00, 174.5, 227.0)">o</text><text xml:space="preserve" font-family="Monaco,Monaco" font-size="24.0" fill="#FEFFFE" transform="matrix(1.00, 0.00, -0.00, -1.00, 188.9, 227.0)"> </text><text xml:space="preserve" font-family="Monaco,Monaco" font-size="24.0" fill="#FEFFFE" transform="matrix(1.00, 0.00, -0.00, -1.00, 203.3, 227.0)">|</text><text xml:space="preserve" font-family="Monaco,Monaco" font-size="24.0" fill="#FEFFFE" transform="matrix(1.00, 0.00, -0.00, -1.00, 217.7, 227.0)">i</text><text xml:space="preserve" font-family="Monaco,Monaco" font-size="24.0" fill="#FEFFFE" transform="matrix(1.00, 0.00, -0.00, -1.00, 232.1, 227.0)">d</text><text xml:space="preserve" font-family="Monaco,Monaco" font-size="24.0" fill="#FEFFFE" transform="matrix(1.00, 0.00, -0.00, -1.00, 246.5, 227.0)">x</text><text xml:space="preserve" font-family="Monaco,Monaco" font-size="24.0" fill="#FEFFFE" transform="matrix(1.00, 0.00, -0.00, -1.00, 260.9, 227.0)">|</text><text xml:space="preserve" font-family="Monaco,Monaco" font-size="24.0" fill="#FEFFFE" transform="matrix(1.00, 0.00, -0.00, -1.00, 275.4, 227.0)">	</text><text xml:space="preserve" font-family="Monaco,Monaco" font-size="24.0" fill="#FEFFFE" transform="matrix(1.00, 0.00, -0.00, -1.00, 1.7, 195.0)"> </text><text xml:space="preserve" font-family="Monaco,Monaco" font-size="24.0" fill="#FEFFFE" transform="matrix(1.00, 0.00, -0.00, -1.00, 16.1, 195.0)"> </text><text xml:space="preserve" font-family="Monaco,Monaco" font-size="24.0" fill="#FEFFFE" transform="matrix(1.00, 0.00, -0.00, -1.00, 30.5, 195.0)"> </text><text xml:space="preserve" font-family="Monaco,Monaco" font-size="24.0" fill="#FEFFFE" transform="matrix(1.00, 0.00, -0.00, -1.00, 44.9, 195.0)"> </text><text xml:space="preserve" font-family="Monaco,Monaco" font-size="24.0" fill="#FEFFFE" transform="matrix(1.00, 0.00, -0.00, -1.00, 59.3, 195.0)">i</text><text xml:space="preserve" font-family="Monaco,Monaco" font-size="24.0" fill="#FEFFFE" transform="matrix(1.00, 0.00, -0.00, -1.00, 73.7, 195.0)">t</text><text xml:space="preserve" font-family="Monaco,Monaco" font-size="24.0" fill="#FEFFFE" transform="matrix(1.00, 0.00, -0.00, -1.00, 88.1, 195.0)"> </text><text xml:space="preserve" font-family="Monaco,Monaco" font-size="24.0" fill="#FEFFFE" transform="matrix(1.00, 0.00, -0.00, -1.00, 102.5, 195.0)">"</text><text xml:space="preserve" font-family="Monaco,Monaco" font-size="24.0" fill="#FEFFFE" transform="matrix(1.00, 0.00, -0.00, -1.00, 116.9, 195.0)">t</text><text xml:space="preserve" font-family="Monaco,Monaco" font-size="24.0" fill="#FEFFFE" transform="matrix(1.00, 0.00, -0.00, -1.00, 131.3, 195.0)">e</text><text xml:space="preserve" font-family="Monaco,Monaco" font-size="24.0" fill="#FEFFFE" transform="matrix(1.00, 0.00, -0.00, -1.00, 145.7, 195.0)">s</text><text xml:space="preserve" font-family="Monaco,Monaco" font-size="24.0" fill="#FEFFFE" transform="matrix(1.00, 0.00, -0.00, -1.00, 160.1, 195.0)">t</text><text xml:space="preserve" font-family="Monaco,Monaco" font-size="24.0" fill="#FEFFFE" transform="matrix(1.00, 0.00, -0.00, -1.00, 174.5, 195.0)"> </text><text xml:space="preserve" font-family="Monaco,Monaco" font-size="24.0" fill="#FEFFFE" transform="matrix(1.00, 0.00, -0.00, -1.00, 188.9, 195.0)">#</text><text xml:space="preserve" font-family="Monaco,Monaco" font-size="24.0" fill="#FEFFFE" transform="matrix(1.00, 0.00, -0.00, -1.00, 203.3, 195.0)">{</text><text xml:space="preserve" font-family="Monaco,Monaco" font-size="24.0" fill="#FEFFFE" transform="matrix(1.00, 0.00, -0.00, -1.00, 217.7, 195.0)">i</text><text xml:space="preserve" font-family="Monaco,Monaco" font-size="24.0" fill="#FEFFFE" transform="matrix(1.00, 0.00, -0.00, -1.00, 232.1, 195.0)">d</text><text xml:space="preserve" font-family="Monaco,Monaco" font-size="24.0" fill="#FEFFFE" transform="matrix(1.00, 0.00, -0.00, -1.00, 246.5, 195.0)">x</text><text xml:space="preserve" font-family="Monaco,Monaco" font-size="24.0" fill="#FEFFFE" transform="matrix(1.00, 0.00, -0.00, -1.00, 260.9, 195.0)">}</text><text xml:space="preserve" font-family="Monaco,Monaco" font-size="24.0" fill="#FEFFFE" transform="matrix(1.00, 0.00, -0.00, -1.00, 275.4, 195.0)">"</text><text xml:space="preserve" font-family="Monaco,Monaco" font-size="24.0" fill="#FEFFFE" transform="matrix(1.00, 0.00, -0.00, -1.00, 289.8, 195.0)"> </text><text xml:space="preserve" font-family="Monaco,Monaco" font-size="24.0" fill="#FEFFFE" transform="matrix(1.00, 0.00, -0.00, -1.00, 304.2, 195.0)">d</text><text xml:space="preserve" font-family="Monaco,Monaco" font-size="24.0" fill="#FEFFFE" transform="matrix(1.00, 0.00, -0.00, -1.00, 318.6, 195.0)">o</text><text xml:space="preserve" font-family="Monaco,Monaco" font-size="24.0" fill="#FEFFFE" transform="matrix(1.00, 0.00, -0.00, -1.00, 333.0, 195.0)">	</text><text xml:space="preserve" font-family="Monaco,Monaco" font-size="24.0" fill="#FEFFFE" transform="matrix(1.00, 0.00, -0.00, -1.00, 1.7, 163.0)"> </text><text xml:space="preserve" font-family="Monaco,Monaco" font-size="24.0" fill="#FEFFFE" transform="matrix(1.00, 0.00, -0.00, -1.00, 16.1, 163.0)"> </text><text xml:space="preserve" font-family="Monaco,Monaco" font-size="24.0" fill="#FEFFFE" transform="matrix(1.00, 0.00, -0.00, -1.00, 30.5, 163.0)"> </text><text xml:space="preserve" font-family="Monaco,Monaco" font-size="24.0" fill="#FEFFFE" transform="matrix(1.00, 0.00, -0.00, -1.00, 44.9, 163.0)"> </text><text xml:space="preserve" font-family="Monaco,Monaco" font-size="24.0" fill="#FEFFFE" transform="matrix(1.00, 0.00, -0.00, -1.00, 59.3, 163.0)"> </text><text xml:space="preserve" font-family="Monaco,Monaco" font-size="24.0" fill="#FEFFFE" transform="matrix(1.00, 0.00, -0.00, -1.00, 73.7, 163.0)"> </text><text xml:space="preserve" font-family="Monaco,Monaco" font-size="24.0" fill="#FEFFFE" transform="matrix(1.00, 0.00, -0.00, -1.00, 88.1, 163.0)">s</text><text xml:space="preserve" font-family="Monaco,Monaco" font-size="24.0" fill="#FEFFFE" transform="matrix(1.00, 0.00, -0.00, -1.00, 102.5, 163.0)">l</text><text xml:space="preserve" font-family="Monaco,Monaco" font-size="24.0" fill="#FEFFFE" transform="matrix(1.00, 0.00, -0.00, -1.00, 116.9, 163.0)">e</text><text xml:space="preserve" font-family="Monaco,Monaco" font-size="24.0" fill="#FEFFFE" transform="matrix(1.00, 0.00, -0.00, -1.00, 131.3, 163.0)">e</text><text xml:space="preserve" font-family="Monaco,Monaco" font-size="24.0" fill="#FEFFFE" transform="matrix(1.00, 0.00, -0.00, -1.00, 145.7, 163.0)">p</text><text xml:space="preserve" font-family="Monaco,Monaco" font-size="24.0" fill="#FEFFFE" transform="matrix(1.00, 0.00, -0.00, -1.00, 160.1, 163.0)">(</text><text xml:space="preserve" font-family="Monaco,Monaco" font-size="24.0" fill="#FEFFFE" transform="matrix(1.00, 0.00, -0.00, -1.00, 174.5, 163.0)">1</text><text xml:space="preserve" font-family="Monaco,Monaco" font-size="24.0" fill="#FEFFFE" transform="matrix(1.00, 0.00, -0.00, -1.00, 188.9, 163.0)">)</text><text xml:space="preserve" font-family="Monaco,Monaco" font-size="24.0" fill="#FEFFFE" transform="matrix(1.00, 0.00, -0.00, -1.00, 203.3, 163.0)">	</text><text xml:space="preserve" font-family="Monaco,Monaco" font-size="24.0" fill="#FEFFFE" transform="matrix(1.00, 0.00, -0.00, -1.00, 1.7, 131.0)"> </text><text xml:space="preserve" font-family="Monaco,Monaco" font-size="24.0" fill="#FEFFFE" transform="matrix(1.00, 0.00, -0.00, -1.00, 16.1, 131.0)"> </text><text xml:space="preserve" font-family="Monaco,Monaco" font-size="24.0" fill="#FEFFFE" transform="matrix(1.00, 0.00, -0.00, -1.00, 30.5, 131.0)"> </text><text xml:space="preserve" font-family="Monaco,Monaco" font-size="24.0" fill="#FEFFFE" transform="matrix(1.00, 0.00, -0.00, -1.00, 44.9, 131.0)"> </text><text xml:space="preserve" font-family="Monaco,Monaco" font-size="24.0" fill="#FEFFFE" transform="matrix(1.00, 0.00, -0.00, -1.00, 59.3, 131.0)"> </text><text xml:space="preserve" font-family="Monaco,Monaco" font-size="24.0" fill="#FEFFFE" transform="matrix(1.00, 0.00, -0.00, -1.00, 73.7, 131.0)"> </text><text xml:space="preserve" font-family="Monaco,Monaco" font-size="24.0" fill="#FEFFFE" transform="matrix(1.00, 0.00, -0.00, -1.00, 88.1, 131.0)">a</text><text xml:space="preserve" font-family="Monaco,Monaco" font-size="24.0" fill="#FEFFFE" transform="matrix(1.00, 0.00, -0.00, -1.00, 102.5, 131.0)">s</text><text xml:space="preserve" font-family="Monaco,Monaco" font-size="24.0" fill="#FEFFFE" transform="matrix(1.00, 0.00, -0.00, -1.00, 116.9, 131.0)">s</text><text xml:space="preserve" font-family="Monaco,Monaco" font-size="24.0" fill="#FEFFFE" transform="matrix(1.00, 0.00, -0.00, -1.00, 131.3, 131.0)">e</text><text xml:space="preserve" font-family="Monaco,Monaco" font-size="24.0" fill="#FEFFFE" transform="matrix(1.00, 0.00, -0.00, -1.00, 145.7, 131.0)">r</text><text xml:space="preserve" font-family="Monaco,Monaco" font-size="24.0" fill="#FEFFFE" transform="matrix(1.00, 0.00, -0.00, -1.00, 160.1, 131.0)">t</text><text xml:space="preserve" font-family="Monaco,Monaco" font-size="24.0" fill="#FEFFFE" transform="matrix(1.00, 0.00, -0.00, -1.00, 174.5, 131.0)"> </text><text xml:space="preserve" font-family="Monaco,Monaco" font-size="24.0" fill="#FEFFFE" transform="matrix(1.00, 0.00, -0.00, -1.00, 188.9, 131.0)">t</text><text xml:space="preserve" font-family="Monaco,Monaco" font-size="24.0" fill="#FEFFFE" transform="matrix(1.00, 0.00, -0.00, -1.00, 203.3, 131.0)">r</text><text xml:space="preserve" font-family="Monaco,Monaco" font-size="24.0" fill="#FEFFFE" transform="matrix(1.00, 0.00, -0.00, -1.00, 217.7, 131.0)">u</text><text xml:space="preserve" font-family="Monaco,Monaco" font-size="24.0" fill="#FEFFFE" transform="matrix(1.00, 0.00, -0.00, -1.00, 232.1, 131.0)">e</text><text xml:space="preserve" font-family="Monaco,Monaco" font-size="24.0" fill="#FEFFFE" transform="matrix(1.00, 0.00, -0.00, -1.00, 246.5, 131.0)">	</text><text xml:space="preserve" font-family="Monaco,Monaco" font-size="24.0" fill="#FEFFFE" transform="matrix(1.00, 0.00, -0.00, -1.00, 1.7, 99.0)"> </text><text xml:space="preserve" font-family="Monaco,Monaco" font-size="24.0" fill="#FEFFFE" transform="matrix(1.00, 0.00, -0.00, -1.00, 16.1, 99.0)"> </text><text xml:space="preserve" font-family="Monaco,Monaco" font-size="24.0" fill="#FEFFFE" transform="matrix(1.00, 0.00, -0.00, -1.00, 30.5, 99.0)"> </text><text xml:space="preserve" font-family="Monaco,Monaco" font-size="24.0" fill="#FEFFFE" transform="matrix(1.00, 0.00, -0.00, -1.00, 44.9, 99.0)"> </text><text xml:space="preserve" font-family="Monaco,Monaco" font-size="24.0" fill="#FEFFFE" transform="matrix(1.00, 0.00, -0.00, -1.00, 59.3, 99.0)">e</text><text xml:space="preserve" font-family="Monaco,Monaco" font-size="24.0" fill="#FEFFFE" transform="matrix(1.00, 0.00, -0.00, -1.00, 73.7, 99.0)">n</text><text xml:space="preserve" font-family="Monaco,Monaco" font-size="24.0" fill="#FEFFFE" transform="matrix(1.00, 0.00, -0.00, -1.00, 88.1, 99.0)">d</text><text xml:space="preserve" font-family="Monaco,Monaco" font-size="24.0" fill="#FEFFFE" transform="matrix(1.00, 0.00, -0.00, -1.00, 102.5, 99.0)">	</text><text xml:space="preserve" font-family="Monaco,Monaco" font-size="24.0" fill="#FEFFFE" transform="matrix(1.00, 0.00, -0.00, -1.00, 1.7, 67.0)"> </text><text xml:space="preserve" font-family="Monaco,Monaco" font-size="24.0" fill="#FEFFFE" transform="matrix(1.00, 0.00, -0.00, -1.00, 16.1, 67.0)"> </text><text xml:space="preserve" font-family="Monaco,Monaco" font-size="24.0" fill="#FEFFFE" transform="matrix(1.00, 0.00, -0.00, -1.00, 30.5, 67.0)">e</text><text xml:space="preserve" font-family="Monaco,Monaco" font-size="24.0" fill="#FEFFFE" transform="matrix(1.00, 0.00, -0.00, -1.00, 44.9, 67.0)">n</text><text xml:space="preserve" font-family="Monaco,Monaco" font-size="24.0" fill="#FEFFFE" transform="matrix(1.00, 0.00, -0.00, -1.00, 59.3, 67.0)">d</text><text xml:space="preserve" font-family="Monaco,Monaco" font-size="24.0" fill="#FEFFFE" transform="matrix(1.00, 0.00, -0.00, -1.00, 73.7, 67.0)">	</text><text xml:space="preserve" font-family="Monaco,Monaco" font-size="24.0" fill="#FEFFFE" transform="matrix(1.00, 0.00, -0.00, -1.00, 1.7, 3.0)">e</text><text xml:space="preserve" font-family="Monaco,Monaco" font-size="24.0" fill="#FEFFFE" transform="matrix(1.00, 0.00, -0.00, -1.00, 16.1, 3.0)">n</text><text xml:space="preserve" font-family="Monaco,Monaco" font-size="24.0" fill="#FEFFFE" transform="matrix(1.00, 0.00, -0.00, -1.00, 30.5, 3.0)">d</text></g></svg>