<?xml version="1.0" encoding="UTF-8" standalone="no"?><svg xmlns="http://www.w3.org/2000/svg" xmlns:xlink="http://www.w3.org/1999/xlink" clip-rule="evenodd" stroke-miterlimit="10" viewBox="0 0 364 206"><desc>SVG generated by Keynote</desc><defs></defs><g transform="matrix(1.00, 0.00, -0.00, -1.00, 0.0, 206.0)"><path d="M 1.5 107.9 L 331.2 204.6 L 362.5 98.1 L 32.8 1.4 Z M 1.5 107.9 " fill="#D35854"></path><g><clipPath id="clip0x6180006a2a00"><path d="M -20.2 119.7 L 343.1 226.3 L 384.2 86.3 L 20.9 -20.3 Z M -20.2 119.7 "></path></clipPath><g clip-path="url(#clip0x6180006a2a00)"><text xml:space="preserve" font-family="Helvetica-Light,Helvetica" font-size="86.0" fill="#FEFFFF" transform="matrix(0.96, 0.28, 0.28, -0.96, 30.4, 25.5)">T</text><text xml:space="preserve" font-family="Helvetica-Light,Helvetica" font-size="86.0" fill="#FEFFFF" transform="matrix(0.96, 0.28, 0.28, -0.96, 67.1, 36.2)">a</text><text xml:space="preserve" font-family="Helvetica-Light,Helvetica" font-size="86.0" fill="#FEFFFF" transform="matrix(0.96, 0.28, 0.28, -0.96, 113.0, 49.7)">k</text><text xml:space="preserve" font-family="Helvetica-Light,Helvetica" font-size="86.0" fill="#FEFFFF" transform="matrix(0.96, 0.28, 0.28, -0.96, 154.3, 61.8)">e</text><text xml:space="preserve" font-family="Helvetica-Light,Helvetica" font-size="86.0" fill="#FEFFFF" transform="matrix(0.96, 0.28, 0.28, -0.96, 200.1, 75.3)">s</text><text xml:space="preserve" font-family="Helvetica-Light,Helvetica" font-size="86.0" fill="#FEFFFF" transform="matrix(0.96, 0.28, 0.28, -0.96, 241.4, 87.4)"> </text><text xml:space="preserve" font-family="Helvetica-Light,Helvetica" font-size="86.0" fill="#FEFFFF" transform="matrix(0.96, 0.28, 0.28, -0.96, 264.3, 94.1)">1</text><text xml:space="preserve" font-family="Helvetica-Light,Helvetica" font-size="86.0" fill="#FEFFFF" transform="matrix(0.96, 0.28, 0.28, -0.96, 310.2, 107.6)">s</text></g></g></g></svg>