<?xml version="1.0" encoding="UTF-8" standalone="no"?><svg xmlns="http://www.w3.org/2000/svg" xmlns:xlink="http://www.w3.org/1999/xlink" clip-rule="evenodd" stroke-miterlimit="10" viewBox="0 0 861 57"><desc>SVG generated by Keynote</desc><defs></defs><g transform="matrix(1.00, 0.00, -0.00, -1.00, 0.0, 57.0)"><text xml:space="preserve" font-family="Helvetica-Light,Helvetica" font-size="74.4" fill="#FEFFFF" transform="matrix(1.00, 0.00, -0.00, -1.00, -4.0, 2.1)">P</text><text xml:space="preserve" font-family="Helvetica-Light,Helvetica" font-size="74.4" fill="#FEFFFF" transform="matrix(1.00, 0.00, -0.00, -1.00, 41.4, 2.1)">a</text><text xml:space="preserve" font-family="Helvetica-Light,Helvetica" font-size="74.4" fill="#FEFFFF" transform="matrix(1.00, 0.00, -0.00, -1.00, 82.8, 2.1)">r</text><text xml:space="preserve" font-family="Helvetica-Light,Helvetica" font-size="74.4" fill="#FEFFFF" transform="matrix(1.00, 0.00, -0.00, -1.00, 107.6, 2.1)">a</text><text xml:space="preserve" font-family="Helvetica-Light,Helvetica" font-size="74.4" fill="#FEFFFF" transform="matrix(1.00, 0.00, -0.00, -1.00, 148.9, 2.1)">l</text><text xml:space="preserve" font-family="Helvetica-Light,Helvetica" font-size="74.4" fill="#FEFFFF" transform="matrix(1.00, 0.00, -0.00, -1.00, 165.4, 2.1)">l</text><text xml:space="preserve" font-family="Helvetica-Light,Helvetica" font-size="74.4" fill="#FEFFFF" transform="matrix(1.00, 0.00, -0.00, -1.00, 182.0, 2.1)">e</text><text xml:space="preserve" font-family="Helvetica-Light,Helvetica" font-size="74.4" fill="#FEFFFF" transform="matrix(1.00, 0.00, -0.00, -1.00, 223.3, 2.1)">l</text><text xml:space="preserve" font-family="Helvetica-Light,Helvetica" font-size="74.4" fill="#FEFFFF" transform="matrix(1.00, 0.00, -0.00, -1.00, 239.8, 2.1)"> </text><text xml:space="preserve" font-family="Helvetica-Light,Helvetica" font-size="74.4" fill="#FEFFFF" transform="matrix(1.00, 0.00, -0.00, -1.00, 260.5, 2.1)">T</text><text xml:space="preserve" font-family="Helvetica-Light,Helvetica" font-size="74.4" fill="#FEFFFF" transform="matrix(1.00, 0.00, -0.00, -1.00, 293.6, 2.1)">e</text><text xml:space="preserve" font-family="Helvetica-Light,Helvetica" font-size="74.4" fill="#FEFFFF" transform="matrix(1.00, 0.00, -0.00, -1.00, 335.0, 2.1)">s</text><text xml:space="preserve" font-family="Helvetica-Light,Helvetica" font-size="74.4" fill="#FEFFFF" transform="matrix(1.00, 0.00, -0.00, -1.00, 372.2, 2.1)">t</text><text xml:space="preserve" font-family="Helvetica-Light,Helvetica" font-size="74.4" fill="#FEFFFF" transform="matrix(1.00, 0.00, -0.00, -1.00, 392.9, 2.1)">s</text><text xml:space="preserve" font-family="Helvetica-Light,Helvetica" font-size="74.4" fill="#FEFFFF" transform="matrix(1.00, 0.00, -0.00, -1.00, 430.1, 2.1)"> </text><text xml:space="preserve" font-family="Helvetica-Light,Helvetica" font-size="74.4" fill="#FEFFFF" transform="matrix(1.00, 0.00, -0.00, -1.00, 450.8, 2.1)">w</text><text xml:space="preserve" font-family="Helvetica-Light,Helvetica" font-size="74.4" fill="#FEFFFF" transform="matrix(1.00, 0.00, -0.00, -1.00, 504.5, 2.1)">i</text><text xml:space="preserve" font-family="Helvetica-Light,Helvetica" font-size="74.4" fill="#FEFFFF" transform="matrix(1.00, 0.00, -0.00, -1.00, 521.0, 2.1)">t</text><text xml:space="preserve" font-family="Helvetica-Light,Helvetica" font-size="74.4" fill="#FEFFFF" transform="matrix(1.00, 0.00, -0.00, -1.00, 541.7, 2.1)">h</text><text xml:space="preserve" font-family="Helvetica-Light,Helvetica" font-size="74.4" fill="#FEFFFF" transform="matrix(1.00, 0.00, -0.00, -1.00, 583.0, 2.1)"> </text><text xml:space="preserve" font-family="Helvetica-Light,Helvetica" font-size="74.4" fill="#FEFFFF" transform="matrix(1.00, 0.00, -0.00, -1.00, 603.7, 2.1)">M</text><text xml:space="preserve" font-family="Helvetica-Light,Helvetica" font-size="74.4" fill="#FEFFFF" transform="matrix(1.00, 0.00, -0.00, -1.00, 665.7, 2.1)">i</text><text xml:space="preserve" font-family="Helvetica-Light,Helvetica" font-size="74.4" fill="#FEFFFF" transform="matrix(1.00, 0.00, -0.00, -1.00, 682.2, 2.1)">n</text><text xml:space="preserve" font-family="Helvetica-Light,Helvetica" font-size="74.4" fill="#FEFFFF" transform="matrix(1.00, 0.00, -0.00, -1.00, 723.6, 2.1)">i</text><text xml:space="preserve" font-family="Helvetica-Light,Helvetica" font-size="74.4" fill="#FEFFFF" transform="matrix(1.00, 0.00, -0.00, -1.00, 740.1, 2.1)">t</text><text xml:space="preserve" font-family="Helvetica-Light,Helvetica" font-size="74.4" fill="#FEFFFF" transform="matrix(1.00, 0.00, -0.00, -1.00, 760.8, 2.1)">e</text><text xml:space="preserve" font-family="Helvetica-Light,Helvetica" font-size="74.4" fill="#FEFFFF" transform="matrix(1.00, 0.00, -0.00, -1.00, 802.2, 2.1)">s</text><text xml:space="preserve" font-family="Helvetica-Light,Helvetica" font-size="74.4" fill="#FEFFFF" transform="matrix(1.00, 0.00, -0.00, -1.00, 839.4, 2.1)">t</text></g></svg>