<?xml version="1.0" encoding="UTF-8" standalone="no"?><svg xmlns="http://www.w3.org/2000/svg" xmlns:xlink="http://www.w3.org/1999/xlink" clip-rule="evenodd" stroke-miterlimit="10" viewBox="0 0 1024 768"><desc>SVG generated by Keynote</desc><defs></defs><g transform="matrix(1.00, 0.00, -0.00, -1.00, 0.0, 768.0)"><path d="M 0.0 768.0 L 1024.0 768.0 L 1024.0 0.0 L 0.0 0.0 Z M 0.0 768.0 " fill="#000000"></path><text xml:space="preserve" font-family="Helvetica-Light,Helvetica" font-size="80.0" fill="#FEFFFF" transform="matrix(1.00, 0.00, -0.00, -1.00, 236.4, 633.4)">S</text><text xml:space="preserve" font-family="Helvetica-Light,Helvetica" font-size="80.0" fill="#FEFFFF" transform="matrix(1.00, 0.00, -0.00, -1.00, 285.2, 633.4)">o</text><text xml:space="preserve" font-family="Helvetica-Light,Helvetica" font-size="80.0" fill="#FEFFFF" transform="matrix(1.00, 0.00, -0.00, -1.00, 329.7, 633.4)">m</text><text xml:space="preserve" font-family="Helvetica-Light,Helvetica" font-size="80.0" fill="#FEFFFF" transform="matrix(1.00, 0.00, -0.00, -1.00, 396.4, 633.4)">e</text><text xml:space="preserve" font-family="Helvetica-Light,Helvetica" font-size="80.0" fill="#FEFFFF" transform="matrix(1.00, 0.00, -0.00, -1.00, 440.8, 633.4)"> </text><text xml:space="preserve" font-family="Helvetica-Light,Helvetica" font-size="80.0" fill="#FEFFFF" transform="matrix(1.00, 0.00, -0.00, -1.00, 463.1, 633.4)">S</text><text xml:space="preserve" font-family="Helvetica-Light,Helvetica" font-size="80.0" fill="#FEFFFF" transform="matrix(1.00, 0.00, -0.00, -1.00, 512.0, 633.4)">o</text><text xml:space="preserve" font-family="Helvetica-Light,Helvetica" font-size="80.0" fill="#FEFFFF" transform="matrix(1.00, 0.00, -0.00, -1.00, 556.4, 633.4)">l</text><text xml:space="preserve" font-family="Helvetica-Light,Helvetica" font-size="80.0" fill="#FEFFFF" transform="matrix(1.00, 0.00, -0.00, -1.00, 574.2, 633.4)">u</text><text xml:space="preserve" font-family="Helvetica-Light,Helvetica" font-size="80.0" fill="#FEFFFF" transform="matrix(1.00, 0.00, -0.00, -1.00, 618.7, 633.4)">t</text><text xml:space="preserve" font-family="Helvetica-Light,Helvetica" font-size="80.0" fill="#FEFFFF" transform="matrix(1.00, 0.00, -0.00, -1.00, 640.9, 633.4)">i</text><text xml:space="preserve" font-family="Helvetica-Light,Helvetica" font-size="80.0" fill="#FEFFFF" transform="matrix(1.00, 0.00, -0.00, -1.00, 658.7, 633.4)">o</text><text xml:space="preserve" font-family="Helvetica-Light,Helvetica" font-size="80.0" fill="#FEFFFF" transform="matrix(1.00, 0.00, -0.00, -1.00, 703.2, 633.4)">n</text><text xml:space="preserve" font-family="Helvetica-Light,Helvetica" font-size="80.0" fill="#FEFFFF" transform="matrix(1.00, 0.00, -0.00, -1.00, 747.6, 633.4)">s</text><text xml:space="preserve" font-family="Helvetica-Light,Helvetica" font-size="29.5" fill="#FEFFFF" transform="matrix(1.00, 0.00, -0.00, -1.00, 276.4, 547.0)">•</text><text xml:space="preserve" font-family="Helvetica-Light,Helvetica" font-size="39.4" fill="#FEFFFF" transform="matrix(1.00, 0.00, -0.00, -1.00, 305.1, 543.8)">M</text><text xml:space="preserve" font-family="Helvetica-Light,Helvetica" font-size="39.4" fill="#FEFFFF" transform="matrix(1.00, 0.00, -0.00, -1.00, 337.9, 543.8)">u</text><text xml:space="preserve" font-family="Helvetica-Light,Helvetica" font-size="39.4" fill="#FEFFFF" transform="matrix(1.00, 0.00, -0.00, -1.00, 359.8, 543.8)">l</text><text xml:space="preserve" font-family="Helvetica-Light,Helvetica" font-size="39.4" fill="#FEFFFF" transform="matrix(1.00, 0.00, -0.00, -1.00, 368.5, 543.8)">t</text><text xml:space="preserve" font-family="Helvetica-Light,Helvetica" font-size="39.4" fill="#FEFFFF" transform="matrix(1.00, 0.00, -0.00, -1.00, 379.5, 543.8)">i</text><text xml:space="preserve" font-family="Helvetica-Light,Helvetica" font-size="39.4" fill="#FEFFFF" transform="matrix(1.00, 0.00, -0.00, -1.00, 388.2, 543.8)">p</text><text xml:space="preserve" font-family="Helvetica-Light,Helvetica" font-size="39.4" fill="#FEFFFF" transform="matrix(1.00, 0.00, -0.00, -1.00, 412.2, 543.8)">l</text><text xml:space="preserve" font-family="Helvetica-Light,Helvetica" font-size="39.4" fill="#FEFFFF" transform="matrix(1.00, 0.00, -0.00, -1.00, 421.0, 543.8)">e</text><text xml:space="preserve" font-family="Helvetica-Light,Helvetica" font-size="39.4" fill="#FEFFFF" transform="matrix(1.00, 0.00, -0.00, -1.00, 442.9, 543.8)"> </text><text xml:space="preserve" font-family="Helvetica-Light,Helvetica" font-size="39.4" fill="#FEFFFF" transform="matrix(1.00, 0.00, -0.00, -1.00, 453.8, 543.8)">p</text><text xml:space="preserve" font-family="Helvetica-Light,Helvetica" font-size="39.4" fill="#FEFFFF" transform="matrix(1.00, 0.00, -0.00, -1.00, 477.9, 543.8)">r</text><text xml:space="preserve" font-family="Helvetica-Light,Helvetica" font-size="39.4" fill="#FEFFFF" transform="matrix(1.00, 0.00, -0.00, -1.00, 490.3, 543.8)">o</text><text xml:space="preserve" font-family="Helvetica-Light,Helvetica" font-size="39.4" fill="#FEFFFF" transform="matrix(1.00, 0.00, -0.00, -1.00, 512.1, 543.8)">c</text><text xml:space="preserve" font-family="Helvetica-Light,Helvetica" font-size="39.4" fill="#FEFFFF" transform="matrix(1.00, 0.00, -0.00, -1.00, 534.0, 543.8)">e</text><text xml:space="preserve" font-family="Helvetica-Light,Helvetica" font-size="39.4" fill="#FEFFFF" transform="matrix(1.00, 0.00, -0.00, -1.00, 555.9, 543.8)">s</text><text xml:space="preserve" font-family="Helvetica-Light,Helvetica" font-size="39.4" fill="#FEFFFF" transform="matrix(1.00, 0.00, -0.00, -1.00, 575.6, 543.8)">s</text><text xml:space="preserve" font-family="Helvetica-Light,Helvetica" font-size="39.4" fill="#FEFFFF" transform="matrix(1.00, 0.00, -0.00, -1.00, 595.3, 543.8)">e</text><text xml:space="preserve" font-family="Helvetica-Light,Helvetica" font-size="39.4" fill="#FEFFFF" transform="matrix(1.00, 0.00, -0.00, -1.00, 617.2, 543.8)">s</text><text xml:space="preserve" font-family="Helvetica-Light,Helvetica" font-size="39.4" fill="#FEFFFF" transform="matrix(1.00, 0.00, -0.00, -1.00, 636.8, 543.8)">/</text><text xml:space="preserve" font-family="Helvetica-Light,Helvetica" font-size="39.4" fill="#FEFFFF" transform="matrix(1.00, 0.00, -0.00, -1.00, 647.8, 543.8)">c</text><text xml:space="preserve" font-family="Helvetica-Light,Helvetica" font-size="39.4" fill="#FEFFFF" transform="matrix(1.00, 0.00, -0.00, -1.00, 669.7, 543.8)">o</text><text xml:space="preserve" font-family="Helvetica-Light,Helvetica" font-size="39.4" fill="#FEFFFF" transform="matrix(1.00, 0.00, -0.00, -1.00, 691.5, 543.8)">r</text><text xml:space="preserve" font-family="Helvetica-Light,Helvetica" font-size="39.4" fill="#FEFFFF" transform="matrix(1.00, 0.00, -0.00, -1.00, 703.9, 543.8)">e</text><text xml:space="preserve" font-family="Helvetica-Light,Helvetica" font-size="39.4" fill="#FEFFFF" transform="matrix(1.00, 0.00, -0.00, -1.00, 725.8, 543.8)">s</text><text xml:space="preserve" font-family="Helvetica-Light,Helvetica" font-size="39.4" fill="#FEFFFF" transform="matrix(1.00, 0.00, -0.00, -1.00, 745.5, 543.8)"> </text><text xml:space="preserve" font-family="Helvetica-Light,Helvetica" font-size="29.5" fill="#FEFFFF" transform="matrix(1.00, 0.00, -0.00, -1.00, 276.4, 465.6)">•</text><text xml:space="preserve" font-family="Helvetica-Light,Helvetica" font-size="39.4" fill="#FEFFFF" transform="matrix(1.00, 0.00, -0.00, -1.00, 305.1, 462.3)">D</text><text xml:space="preserve" font-family="Helvetica-Light,Helvetica" font-size="39.4" fill="#FEFFFF" transform="matrix(1.00, 0.00, -0.00, -1.00, 333.5, 462.3)">i</text><text xml:space="preserve" font-family="Helvetica-Light,Helvetica" font-size="39.4" fill="#FEFFFF" transform="matrix(1.00, 0.00, -0.00, -1.00, 342.3, 462.3)">s</text><text xml:space="preserve" font-family="Helvetica-Light,Helvetica" font-size="39.4" fill="#FEFFFF" transform="matrix(1.00, 0.00, -0.00, -1.00, 361.9, 462.3)">t</text><text xml:space="preserve" font-family="Helvetica-Light,Helvetica" font-size="39.4" fill="#FEFFFF" transform="matrix(1.00, 0.00, -0.00, -1.00, 372.9, 462.3)">r</text><text xml:space="preserve" font-family="Helvetica-Light,Helvetica" font-size="39.4" fill="#FEFFFF" transform="matrix(1.00, 0.00, -0.00, -1.00, 386.0, 462.3)">i</text><text xml:space="preserve" font-family="Helvetica-Light,Helvetica" font-size="39.4" fill="#FEFFFF" transform="matrix(1.00, 0.00, -0.00, -1.00, 394.7, 462.3)">b</text><text xml:space="preserve" font-family="Helvetica-Light,Helvetica" font-size="39.4" fill="#FEFFFF" transform="matrix(1.00, 0.00, -0.00, -1.00, 418.8, 462.3)">u</text><text xml:space="preserve" font-family="Helvetica-Light,Helvetica" font-size="39.4" fill="#FEFFFF" transform="matrix(1.00, 0.00, -0.00, -1.00, 440.7, 462.3)">t</text><text xml:space="preserve" font-family="Helvetica-Light,Helvetica" font-size="39.4" fill="#FEFFFF" transform="matrix(1.00, 0.00, -0.00, -1.00, 451.6, 462.3)">e</text><text xml:space="preserve" font-family="Helvetica-Light,Helvetica" font-size="39.4" fill="#FEFFFF" transform="matrix(1.00, 0.00, -0.00, -1.00, 473.5, 462.3)">d</text><text xml:space="preserve" font-family="Helvetica-Light,Helvetica" font-size="39.4" fill="#FEFFFF" transform="matrix(1.00, 0.00, -0.00, -1.00, 497.5, 462.3)"> </text><text xml:space="preserve" font-family="Helvetica-Light,Helvetica" font-size="29.5" fill="#FEFFFF" transform="matrix(1.00, 0.00, -0.00, -1.00, 276.4, 384.1)">•</text><text xml:space="preserve" font-family="Helvetica-Light,Helvetica" font-size="39.4" fill="#FEFFFF" transform="matrix(1.00, 0.00, -0.00, -1.00, 305.1, 380.9)">S</text><text xml:space="preserve" font-family="Helvetica-Light,Helvetica" font-size="39.4" fill="#FEFFFF" transform="matrix(1.00, 0.00, -0.00, -1.00, 329.2, 380.9)">e</text><text xml:space="preserve" font-family="Helvetica-Light,Helvetica" font-size="39.4" fill="#FEFFFF" transform="matrix(1.00, 0.00, -0.00, -1.00, 351.0, 380.9)">r</text><text xml:space="preserve" font-family="Helvetica-Light,Helvetica" font-size="39.4" fill="#FEFFFF" transform="matrix(1.00, 0.00, -0.00, -1.00, 364.1, 380.9)">v</text><text xml:space="preserve" font-family="Helvetica-Light,Helvetica" font-size="39.4" fill="#FEFFFF" transform="matrix(1.00, 0.00, -0.00, -1.00, 383.8, 380.9)">i</text><text xml:space="preserve" font-family="Helvetica-Light,Helvetica" font-size="39.4" fill="#FEFFFF" transform="matrix(1.00, 0.00, -0.00, -1.00, 392.6, 380.9)">c</text><text xml:space="preserve" font-family="Helvetica-Light,Helvetica" font-size="39.4" fill="#FEFFFF" transform="matrix(1.00, 0.00, -0.00, -1.00, 414.4, 380.9)">e</text><text xml:space="preserve" font-family="Helvetica-Light,Helvetica" font-size="39.4" fill="#FEFFFF" transform="matrix(1.00, 0.00, -0.00, -1.00, 436.3, 380.9)">s</text><text xml:space="preserve" font-family="Helvetica-Light,Helvetica" font-size="24.5" fill="#FEFFFF" transform="matrix(1.00, 0.00, -0.00, -1.00, 479.0, 310.2)">•</text><text xml:space="preserve" font-family="Helvetica-Light,Helvetica" font-size="32.6" fill="#FEFFFF" transform="matrix(1.00, 0.00, -0.00, -1.00, 509.0, 307.0)">M</text><text xml:space="preserve" font-family="Helvetica-Light,Helvetica" font-size="32.6" fill="#FEFFFF" transform="matrix(1.00, 0.00, -0.00, -1.00, 536.2, 307.0)">u</text><text xml:space="preserve" font-family="Helvetica-Light,Helvetica" font-size="32.6" fill="#FEFFFF" transform="matrix(1.00, 0.00, -0.00, -1.00, 554.4, 307.0)">l</text><text xml:space="preserve" font-family="Helvetica-Light,Helvetica" font-size="32.6" fill="#FEFFFF" transform="matrix(1.00, 0.00, -0.00, -1.00, 561.6, 307.0)">t</text><text xml:space="preserve" font-family="Helvetica-Light,Helvetica" font-size="32.6" fill="#FEFFFF" transform="matrix(1.00, 0.00, -0.00, -1.00, 570.7, 307.0)">i</text><text xml:space="preserve" font-family="Helvetica-Light,Helvetica" font-size="32.6" fill="#FEFFFF" transform="matrix(1.00, 0.00, -0.00, -1.00, 577.9, 307.0)">p</text><text xml:space="preserve" font-family="Helvetica-Light,Helvetica" font-size="32.6" fill="#FEFFFF" transform="matrix(1.00, 0.00, -0.00, -1.00, 597.9, 307.0)">l</text><text xml:space="preserve" font-family="Helvetica-Light,Helvetica" font-size="32.6" fill="#FEFFFF" transform="matrix(1.00, 0.00, -0.00, -1.00, 605.1, 307.0)">e</text><text xml:space="preserve" font-family="Helvetica-Light,Helvetica" font-size="32.6" fill="#FEFFFF" transform="matrix(1.00, 0.00, -0.00, -1.00, 623.3, 307.0)"> </text><text xml:space="preserve" font-family="Helvetica-Light,Helvetica" font-size="32.6" fill="#FEFFFF" transform="matrix(1.00, 0.00, -0.00, -1.00, 632.3, 307.0)">d</text><text xml:space="preserve" font-family="Helvetica-Light,Helvetica" font-size="32.6" fill="#FEFFFF" transform="matrix(1.00, 0.00, -0.00, -1.00, 652.3, 307.0)">a</text><text xml:space="preserve" font-family="Helvetica-Light,Helvetica" font-size="32.6" fill="#FEFFFF" transform="matrix(1.00, 0.00, -0.00, -1.00, 670.4, 307.0)">t</text><text xml:space="preserve" font-family="Helvetica-Light,Helvetica" font-size="32.6" fill="#FEFFFF" transform="matrix(1.00, 0.00, -0.00, -1.00, 679.5, 307.0)">a</text><text xml:space="preserve" font-family="Helvetica-Light,Helvetica" font-size="32.6" fill="#FEFFFF" transform="matrix(1.00, 0.00, -0.00, -1.00, 697.6, 307.0)">b</text><text xml:space="preserve" font-family="Helvetica-Light,Helvetica" font-size="32.6" fill="#FEFFFF" transform="matrix(1.00, 0.00, -0.00, -1.00, 717.6, 307.0)">a</text><text xml:space="preserve" font-family="Helvetica-Light,Helvetica" font-size="32.6" fill="#FEFFFF" transform="matrix(1.00, 0.00, -0.00, -1.00, 735.7, 307.0)">s</text><text xml:space="preserve" font-family="Helvetica-Light,Helvetica" font-size="32.6" fill="#FEFFFF" transform="matrix(1.00, 0.00, -0.00, -1.00, 752.1, 307.0)">e</text><text xml:space="preserve" font-family="Helvetica-Light,Helvetica" font-size="32.6" fill="#FEFFFF" transform="matrix(1.00, 0.00, -0.00, -1.00, 770.2, 307.0)">s</text><text xml:space="preserve" font-family="Helvetica-Light,Helvetica" font-size="32.6" fill="#FEFFFF" transform="matrix(1.00, 0.00, -0.00, -1.00, 786.5, 307.0)"> </text><text xml:space="preserve" font-family="Helvetica-Light,Helvetica" font-size="24.5" fill="#FEFFFF" transform="matrix(1.00, 0.00, -0.00, -1.00, 479.0, 241.6)">•</text><text xml:space="preserve" font-family="Helvetica-Light,Helvetica" font-size="32.6" fill="#FEFFFF" transform="matrix(1.00, 0.00, -0.00, -1.00, 509.0, 238.5)">M</text><text xml:space="preserve" font-family="Helvetica-Light,Helvetica" font-size="32.6" fill="#FEFFFF" transform="matrix(1.00, 0.00, -0.00, -1.00, 536.2, 238.5)">a</text><text xml:space="preserve" font-family="Helvetica-Light,Helvetica" font-size="32.6" fill="#FEFFFF" transform="matrix(1.00, 0.00, -0.00, -1.00, 554.4, 238.5)">j</text><text xml:space="preserve" font-family="Helvetica-Light,Helvetica" font-size="32.6" fill="#FEFFFF" transform="matrix(1.00, 0.00, -0.00, -1.00, 561.6, 238.5)">o</text><text xml:space="preserve" font-family="Helvetica-Light,Helvetica" font-size="32.6" fill="#FEFFFF" transform="matrix(1.00, 0.00, -0.00, -1.00, 579.8, 238.5)">r</text><text xml:space="preserve" font-family="Helvetica-Light,Helvetica" font-size="32.6" fill="#FEFFFF" transform="matrix(1.00, 0.00, -0.00, -1.00, 590.6, 238.5)"> </text><text xml:space="preserve" font-family="Helvetica-Light,Helvetica" font-size="32.6" fill="#FEFFFF" transform="matrix(1.00, 0.00, -0.00, -1.00, 599.7, 238.5)">S</text><text xml:space="preserve" font-family="Helvetica-Light,Helvetica" font-size="32.6" fill="#FEFFFF" transform="matrix(1.00, 0.00, -0.00, -1.00, 619.6, 238.5)">e</text><text xml:space="preserve" font-family="Helvetica-Light,Helvetica" font-size="32.6" fill="#FEFFFF" transform="matrix(1.00, 0.00, -0.00, -1.00, 637.8, 238.5)">t</text><text xml:space="preserve" font-family="Helvetica-Light,Helvetica" font-size="32.6" fill="#FEFFFF" transform="matrix(1.00, 0.00, -0.00, -1.00, 646.9, 238.5)">u</text><text xml:space="preserve" font-family="Helvetica-Light,Helvetica" font-size="32.6" fill="#FEFFFF" transform="matrix(1.00, 0.00, -0.00, -1.00, 665.0, 238.5)">p</text><text xml:space="preserve" font-family="Helvetica-Light,Helvetica" font-size="32.6" fill="#FEFFFF" transform="matrix(1.00, 0.00, -0.00, -1.00, 684.9, 238.5)"> </text><text xml:space="preserve" font-family="Helvetica-Light,Helvetica" font-size="24.5" fill="#FEFFFF" transform="matrix(1.00, 0.00, -0.00, -1.00, 479.0, 173.0)">•</text><text xml:space="preserve" font-family="Helvetica-Light,Helvetica" font-size="32.6" fill="#FEFFFF" transform="matrix(1.00, 0.00, -0.00, -1.00, 509.0, 169.9)">W</text><text xml:space="preserve" font-family="Helvetica-Light,Helvetica" font-size="32.6" fill="#FEFFFF" transform="matrix(1.00, 0.00, -0.00, -1.00, 538.0, 169.9)">h</text><text xml:space="preserve" font-family="Helvetica-Light,Helvetica" font-size="32.6" fill="#FEFFFF" transform="matrix(1.00, 0.00, -0.00, -1.00, 556.2, 169.9)">i</text><text xml:space="preserve" font-family="Helvetica-Light,Helvetica" font-size="32.6" fill="#FEFFFF" transform="matrix(1.00, 0.00, -0.00, -1.00, 563.4, 169.9)">c</text><text xml:space="preserve" font-family="Helvetica-Light,Helvetica" font-size="32.6" fill="#FEFFFF" transform="matrix(1.00, 0.00, -0.00, -1.00, 581.6, 169.9)">h</text><text xml:space="preserve" font-family="Helvetica-Light,Helvetica" font-size="32.6" fill="#FEFFFF" transform="matrix(1.00, 0.00, -0.00, -1.00, 599.7, 169.9)"> </text><text xml:space="preserve" font-family="Helvetica-Light,Helvetica" font-size="32.6" fill="#FEFFFF" transform="matrix(1.00, 0.00, -0.00, -1.00, 608.8, 169.9)">t</text><text xml:space="preserve" font-family="Helvetica-Light,Helvetica" font-size="32.6" fill="#FEFFFF" transform="matrix(1.00, 0.00, -0.00, -1.00, 617.9, 169.9)">e</text><text xml:space="preserve" font-family="Helvetica-Light,Helvetica" font-size="32.6" fill="#FEFFFF" transform="matrix(1.00, 0.00, -0.00, -1.00, 636.0, 169.9)">s</text><text xml:space="preserve" font-family="Helvetica-Light,Helvetica" font-size="32.6" fill="#FEFFFF" transform="matrix(1.00, 0.00, -0.00, -1.00, 652.3, 169.9)">t</text><text xml:space="preserve" font-family="Helvetica-Light,Helvetica" font-size="32.6" fill="#FEFFFF" transform="matrix(1.00, 0.00, -0.00, -1.00, 661.4, 169.9)">s</text><text xml:space="preserve" font-family="Helvetica-Light,Helvetica" font-size="32.6" fill="#FEFFFF" transform="matrix(1.00, 0.00, -0.00, -1.00, 677.7, 169.9)"> </text><text xml:space="preserve" font-family="Helvetica-Light,Helvetica" font-size="32.6" fill="#FEFFFF" transform="matrix(1.00, 0.00, -0.00, -1.00, 686.8, 169.9)">g</text><text xml:space="preserve" font-family="Helvetica-Light,Helvetica" font-size="32.6" fill="#FEFFFF" transform="matrix(1.00, 0.00, -0.00, -1.00, 706.8, 169.9)">o</text><text xml:space="preserve" font-family="Helvetica-Light,Helvetica" font-size="32.6" fill="#FEFFFF" transform="matrix(1.00, 0.00, -0.00, -1.00, 724.9, 169.9)"> </text><text xml:space="preserve" font-family="Helvetica-Light,Helvetica" font-size="32.6" fill="#FEFFFF" transform="matrix(1.00, 0.00, -0.00, -1.00, 734.0, 169.9)">w</text><text xml:space="preserve" font-family="Helvetica-Light,Helvetica" font-size="32.6" fill="#FEFFFF" transform="matrix(1.00, 0.00, -0.00, -1.00, 757.5, 169.9)">h</text><text xml:space="preserve" font-family="Helvetica-Light,Helvetica" font-size="32.6" fill="#FEFFFF" transform="matrix(1.00, 0.00, -0.00, -1.00, 775.7, 169.9)">e</text><text xml:space="preserve" font-family="Helvetica-Light,Helvetica" font-size="32.6" fill="#FEFFFF" transform="matrix(1.00, 0.00, -0.00, -1.00, 793.8, 169.9)">r</text><text xml:space="preserve" font-family="Helvetica-Light,Helvetica" font-size="32.6" fill="#FEFFFF" transform="matrix(1.00, 0.00, -0.00, -1.00, 804.1, 169.9)">e</text><text xml:space="preserve" font-family="Helvetica-Light,Helvetica" font-size="32.6" fill="#FEFFFF" transform="matrix(1.00, 0.00, -0.00, -1.00, 822.3, 169.9)">?</text><text xml:space="preserve" font-family="Helvetica-Light,Helvetica" font-size="32.6" fill="#FEFFFF" transform="matrix(1.00, 0.00, -0.00, -1.00, 838.6, 169.9)"> </text><text xml:space="preserve" font-family="Helvetica-Light,Helvetica" font-size="24.5" fill="#FEFFFF" transform="matrix(1.00, 0.00, -0.00, -1.00, 479.0, 104.5)">•</text><text xml:space="preserve" font-family="Helvetica-Light,Helvetica" font-size="32.6" fill="#FEFFFF" transform="matrix(1.00, 0.00, -0.00, -1.00, 509.0, 101.4)">W</text><text xml:space="preserve" font-family="Helvetica-Light,Helvetica" font-size="32.6" fill="#FEFFFF" transform="matrix(1.00, 0.00, -0.00, -1.00, 538.0, 101.4)">h</text><text xml:space="preserve" font-family="Helvetica-Light,Helvetica" font-size="32.6" fill="#FEFFFF" transform="matrix(1.00, 0.00, -0.00, -1.00, 556.2, 101.4)">a</text><text xml:space="preserve" font-family="Helvetica-Light,Helvetica" font-size="32.6" fill="#FEFFFF" transform="matrix(1.00, 0.00, -0.00, -1.00, 574.3, 101.4)">t</text><text xml:space="preserve" font-family="Helvetica-Light,Helvetica" font-size="32.6" fill="#FEFFFF" transform="matrix(1.00, 0.00, -0.00, -1.00, 583.4, 101.4)">’</text><text xml:space="preserve" font-family="Helvetica-Light,Helvetica" font-size="32.6" fill="#FEFFFF" transform="matrix(1.00, 0.00, -0.00, -1.00, 588.2, 101.4)">s</text><text xml:space="preserve" font-family="Helvetica-Light,Helvetica" font-size="32.6" fill="#FEFFFF" transform="matrix(1.00, 0.00, -0.00, -1.00, 604.6, 101.4)"> </text><text xml:space="preserve" font-family="Helvetica-Light,Helvetica" font-size="32.6" fill="#FEFFFF" transform="matrix(1.00, 0.00, -0.00, -1.00, 613.6, 101.4)">g</text><text xml:space="preserve" font-family="Helvetica-Light,Helvetica" font-size="32.6" fill="#FEFFFF" transform="matrix(1.00, 0.00, -0.00, -1.00, 633.6, 101.4)">o</text><text xml:space="preserve" font-family="Helvetica-Light,Helvetica" font-size="32.6" fill="#FEFFFF" transform="matrix(1.00, 0.00, -0.00, -1.00, 651.7, 101.4)">i</text><text xml:space="preserve" font-family="Helvetica-Light,Helvetica" font-size="32.6" fill="#FEFFFF" transform="matrix(1.00, 0.00, -0.00, -1.00, 659.0, 101.4)">n</text><text xml:space="preserve" font-family="Helvetica-Light,Helvetica" font-size="32.6" fill="#FEFFFF" transform="matrix(1.00, 0.00, -0.00, -1.00, 677.1, 101.4)">g</text><text xml:space="preserve" font-family="Helvetica-Light,Helvetica" font-size="32.6" fill="#FEFFFF" transform="matrix(1.00, 0.00, -0.00, -1.00, 697.1, 101.4)"> </text><text xml:space="preserve" font-family="Helvetica-Light,Helvetica" font-size="32.6" fill="#FEFFFF" transform="matrix(1.00, 0.00, -0.00, -1.00, 706.1, 101.4)">o</text><text xml:space="preserve" font-family="Helvetica-Light,Helvetica" font-size="32.6" fill="#FEFFFF" transform="matrix(1.00, 0.00, -0.00, -1.00, 724.3, 101.4)">n</text><text xml:space="preserve" font-family="Helvetica-Light,Helvetica" font-size="32.6" fill="#FEFFFF" transform="matrix(1.00, 0.00, -0.00, -1.00, 742.4, 101.4)">?</text><image xlink:href="../../16AF4AAE-11EF-4AB3-810A-C236C5D76972/assets/BA05675E227102703C877551F28999B7.png" width="462.00" height="480.00" transform="matrix(0.55, 0.00, -0.00, -0.55, 180.0, 348.4)"></image><path d="M 258.6 14.8 C 317.7 34.6 317.7 66.7 258.6 86.5 C 199.4 106.3 103.5 106.3 44.4 86.5 C -14.8 66.7 -14.8 34.6 44.4 14.8 C 103.5 -4.9 199.4 -4.9 258.6 14.8 Z M 258.6 14.8 " fill="none" stroke="#D35854" stroke-width="10.00" transform="matrix(1.00, 0.00, 0.00, -1.00, 497.0, 370.7)"></path></g></svg>