<?xml version="1.0" encoding="UTF-8" standalone="no"?><svg xmlns="http://www.w3.org/2000/svg" xmlns:xlink="http://www.w3.org/1999/xlink" clip-rule="evenodd" stroke-miterlimit="10" viewBox="0 0 362 241"><desc>SVG generated by Keynote</desc><defs></defs><g transform="matrix(1.00, 0.00, -0.00, -1.00, 0.0, 241.0)"><text xml:space="preserve" font-family="Helvetica-Light,Helvetica" font-size="24.5" fill="#FEFFFF" transform="matrix(1.00, 0.00, -0.00, -1.00, 1.0, 218.2)">•</text><text xml:space="preserve" font-family="Helvetica-Light,Helvetica" font-size="32.6" fill="#FEFFFF" transform="matrix(1.00, 0.00, -0.00, -1.00, 31.0, 215.0)">M</text><text xml:space="preserve" font-family="Helvetica-Light,Helvetica" font-size="32.6" fill="#FEFFFF" transform="matrix(1.00, 0.00, -0.00, -1.00, 58.2, 215.0)">u</text><text xml:space="preserve" font-family="Helvetica-Light,Helvetica" font-size="32.6" fill="#FEFFFF" transform="matrix(1.00, 0.00, -0.00, -1.00, 76.4, 215.0)">l</text><text xml:space="preserve" font-family="Helvetica-Light,Helvetica" font-size="32.6" fill="#FEFFFF" transform="matrix(1.00, 0.00, -0.00, -1.00, 83.6, 215.0)">t</text><text xml:space="preserve" font-family="Helvetica-Light,Helvetica" font-size="32.6" fill="#FEFFFF" transform="matrix(1.00, 0.00, -0.00, -1.00, 92.7, 215.0)">i</text><text xml:space="preserve" font-family="Helvetica-Light,Helvetica" font-size="32.6" fill="#FEFFFF" transform="matrix(1.00, 0.00, -0.00, -1.00, 99.9, 215.0)">p</text><text xml:space="preserve" font-family="Helvetica-Light,Helvetica" font-size="32.6" fill="#FEFFFF" transform="matrix(1.00, 0.00, -0.00, -1.00, 119.9, 215.0)">l</text><text xml:space="preserve" font-family="Helvetica-Light,Helvetica" font-size="32.6" fill="#FEFFFF" transform="matrix(1.00, 0.00, -0.00, -1.00, 127.1, 215.0)">e</text><text xml:space="preserve" font-family="Helvetica-Light,Helvetica" font-size="32.6" fill="#FEFFFF" transform="matrix(1.00, 0.00, -0.00, -1.00, 145.3, 215.0)"> </text><text xml:space="preserve" font-family="Helvetica-Light,Helvetica" font-size="32.6" fill="#FEFFFF" transform="matrix(1.00, 0.00, -0.00, -1.00, 154.3, 215.0)">d</text><text xml:space="preserve" font-family="Helvetica-Light,Helvetica" font-size="32.6" fill="#FEFFFF" transform="matrix(1.00, 0.00, -0.00, -1.00, 174.3, 215.0)">a</text><text xml:space="preserve" font-family="Helvetica-Light,Helvetica" font-size="32.6" fill="#FEFFFF" transform="matrix(1.00, 0.00, -0.00, -1.00, 192.4, 215.0)">t</text><text xml:space="preserve" font-family="Helvetica-Light,Helvetica" font-size="32.6" fill="#FEFFFF" transform="matrix(1.00, 0.00, -0.00, -1.00, 201.5, 215.0)">a</text><text xml:space="preserve" font-family="Helvetica-Light,Helvetica" font-size="32.6" fill="#FEFFFF" transform="matrix(1.00, 0.00, -0.00, -1.00, 219.6, 215.0)">b</text><text xml:space="preserve" font-family="Helvetica-Light,Helvetica" font-size="32.6" fill="#FEFFFF" transform="matrix(1.00, 0.00, -0.00, -1.00, 239.6, 215.0)">a</text><text xml:space="preserve" font-family="Helvetica-Light,Helvetica" font-size="32.6" fill="#FEFFFF" transform="matrix(1.00, 0.00, -0.00, -1.00, 257.7, 215.0)">s</text><text xml:space="preserve" font-family="Helvetica-Light,Helvetica" font-size="32.6" fill="#FEFFFF" transform="matrix(1.00, 0.00, -0.00, -1.00, 274.1, 215.0)">e</text><text xml:space="preserve" font-family="Helvetica-Light,Helvetica" font-size="32.6" fill="#FEFFFF" transform="matrix(1.00, 0.00, -0.00, -1.00, 292.2, 215.0)">s</text><text xml:space="preserve" font-family="Helvetica-Light,Helvetica" font-size="32.6" fill="#FEFFFF" transform="matrix(1.00, 0.00, -0.00, -1.00, 308.5, 215.0)"> </text><text xml:space="preserve" font-family="Helvetica-Light,Helvetica" font-size="24.5" fill="#FEFFFF" transform="matrix(1.00, 0.00, -0.00, -1.00, 1.0, 149.6)">•</text><text xml:space="preserve" font-family="Helvetica-Light,Helvetica" font-size="32.6" fill="#FEFFFF" transform="matrix(1.00, 0.00, -0.00, -1.00, 31.0, 146.5)">M</text><text xml:space="preserve" font-family="Helvetica-Light,Helvetica" font-size="32.6" fill="#FEFFFF" transform="matrix(1.00, 0.00, -0.00, -1.00, 58.2, 146.5)">a</text><text xml:space="preserve" font-family="Helvetica-Light,Helvetica" font-size="32.6" fill="#FEFFFF" transform="matrix(1.00, 0.00, -0.00, -1.00, 76.4, 146.5)">j</text><text xml:space="preserve" font-family="Helvetica-Light,Helvetica" font-size="32.6" fill="#FEFFFF" transform="matrix(1.00, 0.00, -0.00, -1.00, 83.6, 146.5)">o</text><text xml:space="preserve" font-family="Helvetica-Light,Helvetica" font-size="32.6" fill="#FEFFFF" transform="matrix(1.00, 0.00, -0.00, -1.00, 101.8, 146.5)">r</text><text xml:space="preserve" font-family="Helvetica-Light,Helvetica" font-size="32.6" fill="#FEFFFF" transform="matrix(1.00, 0.00, -0.00, -1.00, 112.6, 146.5)"> </text><text xml:space="preserve" font-family="Helvetica-Light,Helvetica" font-size="32.6" fill="#FEFFFF" transform="matrix(1.00, 0.00, -0.00, -1.00, 121.7, 146.5)">S</text><text xml:space="preserve" font-family="Helvetica-Light,Helvetica" font-size="32.6" fill="#FEFFFF" transform="matrix(1.00, 0.00, -0.00, -1.00, 141.6, 146.5)">e</text><text xml:space="preserve" font-family="Helvetica-Light,Helvetica" font-size="32.6" fill="#FEFFFF" transform="matrix(1.00, 0.00, -0.00, -1.00, 159.8, 146.5)">t</text><text xml:space="preserve" font-family="Helvetica-Light,Helvetica" font-size="32.6" fill="#FEFFFF" transform="matrix(1.00, 0.00, -0.00, -1.00, 168.9, 146.5)">u</text><text xml:space="preserve" font-family="Helvetica-Light,Helvetica" font-size="32.6" fill="#FEFFFF" transform="matrix(1.00, 0.00, -0.00, -1.00, 187.0, 146.5)">p</text><text xml:space="preserve" font-family="Helvetica-Light,Helvetica" font-size="32.6" fill="#FEFFFF" transform="matrix(1.00, 0.00, -0.00, -1.00, 206.9, 146.5)"> </text><text xml:space="preserve" font-family="Helvetica-Light,Helvetica" font-size="24.5" fill="#FEFFFF" transform="matrix(1.00, 0.00, -0.00, -1.00, 1.0, 81.0)">•</text><text xml:space="preserve" font-family="Helvetica-Light,Helvetica" font-size="32.6" fill="#FEFFFF" transform="matrix(1.00, 0.00, -0.00, -1.00, 31.0, 77.9)">W</text><text xml:space="preserve" font-family="Helvetica-Light,Helvetica" font-size="32.6" fill="#FEFFFF" transform="matrix(1.00, 0.00, -0.00, -1.00, 60.0, 77.9)">h</text><text xml:space="preserve" font-family="Helvetica-Light,Helvetica" font-size="32.6" fill="#FEFFFF" transform="matrix(1.00, 0.00, -0.00, -1.00, 78.2, 77.9)">i</text><text xml:space="preserve" font-family="Helvetica-Light,Helvetica" font-size="32.6" fill="#FEFFFF" transform="matrix(1.00, 0.00, -0.00, -1.00, 85.4, 77.9)">c</text><text xml:space="preserve" font-family="Helvetica-Light,Helvetica" font-size="32.6" fill="#FEFFFF" transform="matrix(1.00, 0.00, -0.00, -1.00, 103.6, 77.9)">h</text><text xml:space="preserve" font-family="Helvetica-Light,Helvetica" font-size="32.6" fill="#FEFFFF" transform="matrix(1.00, 0.00, -0.00, -1.00, 121.7, 77.9)"> </text><text xml:space="preserve" font-family="Helvetica-Light,Helvetica" font-size="32.6" fill="#FEFFFF" transform="matrix(1.00, 0.00, -0.00, -1.00, 130.8, 77.9)">t</text><text xml:space="preserve" font-family="Helvetica-Light,Helvetica" font-size="32.6" fill="#FEFFFF" transform="matrix(1.00, 0.00, -0.00, -1.00, 139.9, 77.9)">e</text><text xml:space="preserve" font-family="Helvetica-Light,Helvetica" font-size="32.6" fill="#FEFFFF" transform="matrix(1.00, 0.00, -0.00, -1.00, 158.0, 77.9)">s</text><text xml:space="preserve" font-family="Helvetica-Light,Helvetica" font-size="32.6" fill="#FEFFFF" transform="matrix(1.00, 0.00, -0.00, -1.00, 174.3, 77.9)">t</text><text xml:space="preserve" font-family="Helvetica-Light,Helvetica" font-size="32.6" fill="#FEFFFF" transform="matrix(1.00, 0.00, -0.00, -1.00, 183.4, 77.9)">s</text><text xml:space="preserve" font-family="Helvetica-Light,Helvetica" font-size="32.6" fill="#FEFFFF" transform="matrix(1.00, 0.00, -0.00, -1.00, 199.7, 77.9)"> </text><text xml:space="preserve" font-family="Helvetica-Light,Helvetica" font-size="32.6" fill="#FEFFFF" transform="matrix(1.00, 0.00, -0.00, -1.00, 208.8, 77.9)">g</text><text xml:space="preserve" font-family="Helvetica-Light,Helvetica" font-size="32.6" fill="#FEFFFF" transform="matrix(1.00, 0.00, -0.00, -1.00, 228.8, 77.9)">o</text><text xml:space="preserve" font-family="Helvetica-Light,Helvetica" font-size="32.6" fill="#FEFFFF" transform="matrix(1.00, 0.00, -0.00, -1.00, 246.9, 77.9)"> </text><text xml:space="preserve" font-family="Helvetica-Light,Helvetica" font-size="32.6" fill="#FEFFFF" transform="matrix(1.00, 0.00, -0.00, -1.00, 256.0, 77.9)">w</text><text xml:space="preserve" font-family="Helvetica-Light,Helvetica" font-size="32.6" fill="#FEFFFF" transform="matrix(1.00, 0.00, -0.00, -1.00, 279.5, 77.9)">h</text><text xml:space="preserve" font-family="Helvetica-Light,Helvetica" font-size="32.6" fill="#FEFFFF" transform="matrix(1.00, 0.00, -0.00, -1.00, 297.7, 77.9)">e</text><text xml:space="preserve" font-family="Helvetica-Light,Helvetica" font-size="32.6" fill="#FEFFFF" transform="matrix(1.00, 0.00, -0.00, -1.00, 315.8, 77.9)">r</text><text xml:space="preserve" font-family="Helvetica-Light,Helvetica" font-size="32.6" fill="#FEFFFF" transform="matrix(1.00, 0.00, -0.00, -1.00, 326.1, 77.9)">e</text><text xml:space="preserve" font-family="Helvetica-Light,Helvetica" font-size="32.6" fill="#FEFFFF" transform="matrix(1.00, 0.00, -0.00, -1.00, 344.3, 77.9)">?</text><text xml:space="preserve" font-family="Helvetica-Light,Helvetica" font-size="32.6" fill="#FEFFFF" transform="matrix(1.00, 0.00, -0.00, -1.00, 360.6, 77.9)"> </text><text xml:space="preserve" font-family="Helvetica-Light,Helvetica" font-size="24.5" fill="#FEFFFF" transform="matrix(1.00, 0.00, -0.00, -1.00, 1.0, 12.5)">•</text><text xml:space="preserve" font-family="Helvetica-Light,Helvetica" font-size="32.6" fill="#FEFFFF" transform="matrix(1.00, 0.00, -0.00, -1.00, 31.0, 9.4)">W</text><text xml:space="preserve" font-family="Helvetica-Light,Helvetica" font-size="32.6" fill="#FEFFFF" transform="matrix(1.00, 0.00, -0.00, -1.00, 60.0, 9.4)">h</text><text xml:space="preserve" font-family="Helvetica-Light,Helvetica" font-size="32.6" fill="#FEFFFF" transform="matrix(1.00, 0.00, -0.00, -1.00, 78.2, 9.4)">a</text><text xml:space="preserve" font-family="Helvetica-Light,Helvetica" font-size="32.6" fill="#FEFFFF" transform="matrix(1.00, 0.00, -0.00, -1.00, 96.3, 9.4)">t</text><text xml:space="preserve" font-family="Helvetica-Light,Helvetica" font-size="32.6" fill="#FEFFFF" transform="matrix(1.00, 0.00, -0.00, -1.00, 105.4, 9.4)">’</text><text xml:space="preserve" font-family="Helvetica-Light,Helvetica" font-size="32.6" fill="#FEFFFF" transform="matrix(1.00, 0.00, -0.00, -1.00, 110.2, 9.4)">s</text><text xml:space="preserve" font-family="Helvetica-Light,Helvetica" font-size="32.6" fill="#FEFFFF" transform="matrix(1.00, 0.00, -0.00, -1.00, 126.6, 9.4)"> </text><text xml:space="preserve" font-family="Helvetica-Light,Helvetica" font-size="32.6" fill="#FEFFFF" transform="matrix(1.00, 0.00, -0.00, -1.00, 135.6, 9.4)">g</text><text xml:space="preserve" font-family="Helvetica-Light,Helvetica" font-size="32.6" fill="#FEFFFF" transform="matrix(1.00, 0.00, -0.00, -1.00, 155.6, 9.4)">o</text><text xml:space="preserve" font-family="Helvetica-Light,Helvetica" font-size="32.6" fill="#FEFFFF" transform="matrix(1.00, 0.00, -0.00, -1.00, 173.7, 9.4)">i</text><text xml:space="preserve" font-family="Helvetica-Light,Helvetica" font-size="32.6" fill="#FEFFFF" transform="matrix(1.00, 0.00, -0.00, -1.00, 181.0, 9.4)">n</text><text xml:space="preserve" font-family="Helvetica-Light,Helvetica" font-size="32.6" fill="#FEFFFF" transform="matrix(1.00, 0.00, -0.00, -1.00, 199.1, 9.4)">g</text><text xml:space="preserve" font-family="Helvetica-Light,Helvetica" font-size="32.6" fill="#FEFFFF" transform="matrix(1.00, 0.00, -0.00, -1.00, 219.1, 9.4)"> </text><text xml:space="preserve" font-family="Helvetica-Light,Helvetica" font-size="32.6" fill="#FEFFFF" transform="matrix(1.00, 0.00, -0.00, -1.00, 228.1, 9.4)">o</text><text xml:space="preserve" font-family="Helvetica-Light,Helvetica" font-size="32.6" fill="#FEFFFF" transform="matrix(1.00, 0.00, -0.00, -1.00, 246.3, 9.4)">n</text><text xml:space="preserve" font-family="Helvetica-Light,Helvetica" font-size="32.6" fill="#FEFFFF" transform="matrix(1.00, 0.00, -0.00, -1.00, 264.4, 9.4)">?</text></g></svg>