<?xml version="1.0" encoding="UTF-8" standalone="no"?><svg xmlns="http://www.w3.org/2000/svg" xmlns:xlink="http://www.w3.org/1999/xlink" clip-rule="evenodd" stroke-miterlimit="10" viewBox="0 0 1024 768"><desc>SVG generated by Keynote</desc><defs></defs><g transform="matrix(1.00, 0.00, -0.00, -1.00, 0.0, 768.0)"><path d="M 0.0 768.0 L 1024.0 768.0 L 1024.0 0.0 L 0.0 0.0 Z M 0.0 768.0 " fill="#000000"></path><text xml:space="preserve" font-family="Helvetica-Light,Helvetica" font-size="80.0" fill="#FEFFFF" transform="matrix(1.00, 0.00, -0.00, -1.00, 434.2, 633.4)">W</text><text xml:space="preserve" font-family="Helvetica-Light,Helvetica" font-size="80.0" fill="#FEFFFF" transform="matrix(1.00, 0.00, -0.00, -1.00, 505.3, 633.4)">h</text><text xml:space="preserve" font-family="Helvetica-Light,Helvetica" font-size="80.0" fill="#FEFFFF" transform="matrix(1.00, 0.00, -0.00, -1.00, 549.8, 633.4)">y</text><text xml:space="preserve" font-family="Helvetica-Light,Helvetica" font-size="31.0" fill="#FEFFFF" transform="matrix(1.00, 0.00, -0.00, -1.00, 303.9, 488.3)">•</text><text xml:space="preserve" font-family="Helvetica-Light,Helvetica" font-size="41.3" fill="#FEFFFF" transform="matrix(1.00, 0.00, -0.00, -1.00, 334.0, 484.7)">T</text><text xml:space="preserve" font-family="Helvetica-Light,Helvetica" font-size="41.3" fill="#FEFFFF" transform="matrix(1.00, 0.00, -0.00, -1.00, 356.9, 484.7)">h</text><text xml:space="preserve" font-family="Helvetica-Light,Helvetica" font-size="41.3" fill="#FEFFFF" transform="matrix(1.00, 0.00, -0.00, -1.00, 379.9, 484.7)">r</text><text xml:space="preserve" font-family="Helvetica-Light,Helvetica" font-size="41.3" fill="#FEFFFF" transform="matrix(1.00, 0.00, -0.00, -1.00, 392.9, 484.7)">e</text><text xml:space="preserve" font-family="Helvetica-Light,Helvetica" font-size="41.3" fill="#FEFFFF" transform="matrix(1.00, 0.00, -0.00, -1.00, 415.8, 484.7)">a</text><text xml:space="preserve" font-family="Helvetica-Light,Helvetica" font-size="41.3" fill="#FEFFFF" transform="matrix(1.00, 0.00, -0.00, -1.00, 438.8, 484.7)">d</text><text xml:space="preserve" font-family="Helvetica-Light,Helvetica" font-size="41.3" fill="#FEFFFF" transform="matrix(1.00, 0.00, -0.00, -1.00, 464.0, 484.7)">-</text><text xml:space="preserve" font-family="Helvetica-Light,Helvetica" font-size="41.3" fill="#FEFFFF" transform="matrix(1.00, 0.00, -0.00, -1.00, 477.7, 484.7)">s</text><text xml:space="preserve" font-family="Helvetica-Light,Helvetica" font-size="41.3" fill="#FEFFFF" transform="matrix(1.00, 0.00, -0.00, -1.00, 498.4, 484.7)">a</text><text xml:space="preserve" font-family="Helvetica-Light,Helvetica" font-size="41.3" fill="#FEFFFF" transform="matrix(1.00, 0.00, -0.00, -1.00, 521.3, 484.7)">f</text><text xml:space="preserve" font-family="Helvetica-Light,Helvetica" font-size="41.3" fill="#FEFFFF" transform="matrix(1.00, 0.00, -0.00, -1.00, 532.8, 484.7)">e</text><text xml:space="preserve" font-family="Helvetica-Light,Helvetica" font-size="41.3" fill="#FEFFFF" transform="matrix(1.00, 0.00, -0.00, -1.00, 555.8, 484.7)">t</text><text xml:space="preserve" font-family="Helvetica-Light,Helvetica" font-size="41.3" fill="#FEFFFF" transform="matrix(1.00, 0.00, -0.00, -1.00, 567.2, 484.7)">y</text><text xml:space="preserve" font-family="Helvetica-Light,Helvetica" font-size="41.3" fill="#FEFFFF" transform="matrix(1.00, 0.00, -0.00, -1.00, 587.9, 484.7)"> </text><text xml:space="preserve" font-family="Helvetica-Light,Helvetica" font-size="31.0" fill="#FEFFFF" transform="matrix(1.00, 0.00, -0.00, -1.00, 303.9, 403.2)">•</text><text xml:space="preserve" font-family="Helvetica-Light,Helvetica" font-size="41.3" fill="#FEFFFF" transform="matrix(1.00, 0.00, -0.00, -1.00, 334.0, 399.6)">T</text><text xml:space="preserve" font-family="Helvetica-Light,Helvetica" font-size="41.3" fill="#FEFFFF" transform="matrix(1.00, 0.00, -0.00, -1.00, 352.3, 399.6)">e</text><text xml:space="preserve" font-family="Helvetica-Light,Helvetica" font-size="41.3" fill="#FEFFFF" transform="matrix(1.00, 0.00, -0.00, -1.00, 375.3, 399.6)">s</text><text xml:space="preserve" font-family="Helvetica-Light,Helvetica" font-size="41.3" fill="#FEFFFF" transform="matrix(1.00, 0.00, -0.00, -1.00, 395.9, 399.6)">t</text><text xml:space="preserve" font-family="Helvetica-Light,Helvetica" font-size="41.3" fill="#FEFFFF" transform="matrix(1.00, 0.00, -0.00, -1.00, 407.4, 399.6)"> </text><text xml:space="preserve" font-family="Helvetica-Light,Helvetica" font-size="41.3" fill="#FEFFFF" transform="matrix(1.00, 0.00, -0.00, -1.00, 418.9, 399.6)">i</text><text xml:space="preserve" font-family="Helvetica-Light,Helvetica" font-size="41.3" fill="#FEFFFF" transform="matrix(1.00, 0.00, -0.00, -1.00, 428.0, 399.6)">s</text><text xml:space="preserve" font-family="Helvetica-Light,Helvetica" font-size="41.3" fill="#FEFFFF" transform="matrix(1.00, 0.00, -0.00, -1.00, 448.7, 399.6)">o</text><text xml:space="preserve" font-family="Helvetica-Light,Helvetica" font-size="41.3" fill="#FEFFFF" transform="matrix(1.00, 0.00, -0.00, -1.00, 471.6, 399.6)">l</text><text xml:space="preserve" font-family="Helvetica-Light,Helvetica" font-size="41.3" fill="#FEFFFF" transform="matrix(1.00, 0.00, -0.00, -1.00, 480.8, 399.6)">a</text><text xml:space="preserve" font-family="Helvetica-Light,Helvetica" font-size="41.3" fill="#FEFFFF" transform="matrix(1.00, 0.00, -0.00, -1.00, 503.7, 399.6)">t</text><text xml:space="preserve" font-family="Helvetica-Light,Helvetica" font-size="41.3" fill="#FEFFFF" transform="matrix(1.00, 0.00, -0.00, -1.00, 515.2, 399.6)">i</text><text xml:space="preserve" font-family="Helvetica-Light,Helvetica" font-size="41.3" fill="#FEFFFF" transform="matrix(1.00, 0.00, -0.00, -1.00, 524.4, 399.6)">o</text><text xml:space="preserve" font-family="Helvetica-Light,Helvetica" font-size="41.3" fill="#FEFFFF" transform="matrix(1.00, 0.00, -0.00, -1.00, 547.3, 399.6)">n</text><text xml:space="preserve" font-family="Helvetica-Light,Helvetica" font-size="41.3" fill="#FEFFFF" transform="matrix(1.00, 0.00, -0.00, -1.00, 570.3, 399.6)"> </text><text xml:space="preserve" font-family="Helvetica-Light,Helvetica" font-size="31.0" fill="#FEFFFF" transform="matrix(1.00, 0.00, -0.00, -1.00, 303.9, 318.1)">•</text><text xml:space="preserve" font-family="Helvetica-Light,Helvetica" font-size="41.3" fill="#FEFFFF" transform="matrix(1.00, 0.00, -0.00, -1.00, 334.0, 314.4)">C</text><text xml:space="preserve" font-family="Helvetica-Light,Helvetica" font-size="41.3" fill="#FEFFFF" transform="matrix(1.00, 0.00, -0.00, -1.00, 363.8, 314.4)">h</text><text xml:space="preserve" font-family="Helvetica-Light,Helvetica" font-size="41.3" fill="#FEFFFF" transform="matrix(1.00, 0.00, -0.00, -1.00, 386.7, 314.4)">a</text><text xml:space="preserve" font-family="Helvetica-Light,Helvetica" font-size="41.3" fill="#FEFFFF" transform="matrix(1.00, 0.00, -0.00, -1.00, 409.7, 314.4)">l</text><text xml:space="preserve" font-family="Helvetica-Light,Helvetica" font-size="41.3" fill="#FEFFFF" transform="matrix(1.00, 0.00, -0.00, -1.00, 418.8, 314.4)">l</text><text xml:space="preserve" font-family="Helvetica-Light,Helvetica" font-size="41.3" fill="#FEFFFF" transform="matrix(1.00, 0.00, -0.00, -1.00, 428.0, 314.4)">e</text><text xml:space="preserve" font-family="Helvetica-Light,Helvetica" font-size="41.3" fill="#FEFFFF" transform="matrix(1.00, 0.00, -0.00, -1.00, 450.9, 314.4)">n</text><text xml:space="preserve" font-family="Helvetica-Light,Helvetica" font-size="41.3" fill="#FEFFFF" transform="matrix(1.00, 0.00, -0.00, -1.00, 473.9, 314.4)">g</text><text xml:space="preserve" font-family="Helvetica-Light,Helvetica" font-size="41.3" fill="#FEFFFF" transform="matrix(1.00, 0.00, -0.00, -1.00, 499.1, 314.4)">e</text><text xml:space="preserve" font-family="Helvetica-Light,Helvetica" font-size="41.3" fill="#FEFFFF" transform="matrix(1.00, 0.00, -0.00, -1.00, 522.1, 314.4)"> </text><text xml:space="preserve" font-family="Helvetica-Light,Helvetica" font-size="41.3" fill="#FEFFFF" transform="matrix(1.00, 0.00, -0.00, -1.00, 533.5, 314.4)">y</text><text xml:space="preserve" font-family="Helvetica-Light,Helvetica" font-size="41.3" fill="#FEFFFF" transform="matrix(1.00, 0.00, -0.00, -1.00, 554.2, 314.4)">o</text><text xml:space="preserve" font-family="Helvetica-Light,Helvetica" font-size="41.3" fill="#FEFFFF" transform="matrix(1.00, 0.00, -0.00, -1.00, 577.1, 314.4)">u</text><text xml:space="preserve" font-family="Helvetica-Light,Helvetica" font-size="41.3" fill="#FEFFFF" transform="matrix(1.00, 0.00, -0.00, -1.00, 600.1, 314.4)">r</text><text xml:space="preserve" font-family="Helvetica-Light,Helvetica" font-size="41.3" fill="#FEFFFF" transform="matrix(1.00, 0.00, -0.00, -1.00, 613.8, 314.4)"> </text><text xml:space="preserve" font-family="Helvetica-Light,Helvetica" font-size="41.3" fill="#FEFFFF" transform="matrix(1.00, 0.00, -0.00, -1.00, 625.3, 314.4)">t</text><text xml:space="preserve" font-family="Helvetica-Light,Helvetica" font-size="41.3" fill="#FEFFFF" transform="matrix(1.00, 0.00, -0.00, -1.00, 636.8, 314.4)">e</text><text xml:space="preserve" font-family="Helvetica-Light,Helvetica" font-size="41.3" fill="#FEFFFF" transform="matrix(1.00, 0.00, -0.00, -1.00, 659.7, 314.4)">s</text><text xml:space="preserve" font-family="Helvetica-Light,Helvetica" font-size="41.3" fill="#FEFFFF" transform="matrix(1.00, 0.00, -0.00, -1.00, 680.4, 314.4)">t</text><text xml:space="preserve" font-family="Helvetica-Light,Helvetica" font-size="41.3" fill="#FEFFFF" transform="matrix(1.00, 0.00, -0.00, -1.00, 691.9, 314.4)">s</text><text xml:space="preserve" font-family="Helvetica-Light,Helvetica" font-size="41.3" fill="#FEFFFF" transform="matrix(1.00, 0.00, -0.00, -1.00, 712.5, 314.4)"> </text><text xml:space="preserve" font-family="Helvetica-Light,Helvetica" font-size="31.0" fill="#FEFFFF" transform="matrix(1.00, 0.00, -0.00, -1.00, 303.9, 233.0)">•</text><text xml:space="preserve" font-family="Helvetica-Light,Helvetica" font-size="41.3" fill="#FEFFFF" transform="matrix(1.00, 0.00, -0.00, -1.00, 334.0, 229.3)">L</text><text xml:space="preserve" font-family="Helvetica-Light,Helvetica" font-size="41.3" fill="#FEFFFF" transform="matrix(1.00, 0.00, -0.00, -1.00, 356.9, 229.3)">e</text><text xml:space="preserve" font-family="Helvetica-Light,Helvetica" font-size="41.3" fill="#FEFFFF" transform="matrix(1.00, 0.00, -0.00, -1.00, 379.9, 229.3)">a</text><text xml:space="preserve" font-family="Helvetica-Light,Helvetica" font-size="41.3" fill="#FEFFFF" transform="matrix(1.00, 0.00, -0.00, -1.00, 402.8, 229.3)">d</text><text xml:space="preserve" font-family="Helvetica-Light,Helvetica" font-size="41.3" fill="#FEFFFF" transform="matrix(1.00, 0.00, -0.00, -1.00, 428.0, 229.3)">s</text><text xml:space="preserve" font-family="Helvetica-Light,Helvetica" font-size="41.3" fill="#FEFFFF" transform="matrix(1.00, 0.00, -0.00, -1.00, 448.7, 229.3)"> </text><text xml:space="preserve" font-family="Helvetica-Light,Helvetica" font-size="41.3" fill="#FEFFFF" transform="matrix(1.00, 0.00, -0.00, -1.00, 460.1, 229.3)">t</text><text xml:space="preserve" font-family="Helvetica-Light,Helvetica" font-size="41.3" fill="#FEFFFF" transform="matrix(1.00, 0.00, -0.00, -1.00, 471.6, 229.3)">o</text><text xml:space="preserve" font-family="Helvetica-Light,Helvetica" font-size="41.3" fill="#FEFFFF" transform="matrix(1.00, 0.00, -0.00, -1.00, 494.6, 229.3)"> </text><text xml:space="preserve" font-family="Helvetica-Light,Helvetica" font-size="41.3" fill="#FEFFFF" transform="matrix(1.00, 0.00, -0.00, -1.00, 506.1, 229.3)">b</text><text xml:space="preserve" font-family="Helvetica-Light,Helvetica" font-size="41.3" fill="#FEFFFF" transform="matrix(1.00, 0.00, -0.00, -1.00, 531.3, 229.3)">e</text><text xml:space="preserve" font-family="Helvetica-Light,Helvetica" font-size="41.3" fill="#FEFFFF" transform="matrix(1.00, 0.00, -0.00, -1.00, 554.2, 229.3)">t</text><text xml:space="preserve" font-family="Helvetica-Light,Helvetica" font-size="41.3" fill="#FEFFFF" transform="matrix(1.00, 0.00, -0.00, -1.00, 565.7, 229.3)">t</text><text xml:space="preserve" font-family="Helvetica-Light,Helvetica" font-size="41.3" fill="#FEFFFF" transform="matrix(1.00, 0.00, -0.00, -1.00, 577.2, 229.3)">e</text><text xml:space="preserve" font-family="Helvetica-Light,Helvetica" font-size="41.3" fill="#FEFFFF" transform="matrix(1.00, 0.00, -0.00, -1.00, 600.1, 229.3)">r</text><text xml:space="preserve" font-family="Helvetica-Light,Helvetica" font-size="41.3" fill="#FEFFFF" transform="matrix(1.00, 0.00, -0.00, -1.00, 613.9, 229.3)"> </text><text xml:space="preserve" font-family="Helvetica-Light,Helvetica" font-size="41.3" fill="#FEFFFF" transform="matrix(1.00, 0.00, -0.00, -1.00, 625.4, 229.3)">c</text><text xml:space="preserve" font-family="Helvetica-Light,Helvetica" font-size="41.3" fill="#FEFFFF" transform="matrix(1.00, 0.00, -0.00, -1.00, 648.3, 229.3)">o</text><text xml:space="preserve" font-family="Helvetica-Light,Helvetica" font-size="41.3" fill="#FEFFFF" transform="matrix(1.00, 0.00, -0.00, -1.00, 671.3, 229.3)">d</text><text xml:space="preserve" font-family="Helvetica-Light,Helvetica" font-size="41.3" fill="#FEFFFF" transform="matrix(1.00, 0.00, -0.00, -1.00, 696.5, 229.3)">e</text></g></svg>