<?xml version="1.0" encoding="UTF-8" standalone="no"?><svg xmlns="http://www.w3.org/2000/svg" xmlns:xlink="http://www.w3.org/1999/xlink" clip-rule="evenodd" stroke-miterlimit="10" viewBox="0 0 1024 768"><desc>SVG generated by Keynote</desc><defs></defs><g transform="matrix(1.00, 0.00, -0.00, -1.00, 0.0, 768.0)"><path d="M 0.0 768.0 L 1024.0 768.0 L 1024.0 0.0 L 0.0 0.0 Z M 0.0 768.0 " fill="#000000"></path><text xml:space="preserve" font-family="Helvetica-Light,Helvetica" font-size="80.0" fill="#FEFFFF" transform="matrix(1.00, 0.00, -0.00, -1.00, 286.0, 633.4)">T</text><text xml:space="preserve" font-family="Helvetica-Light,Helvetica" font-size="80.0" fill="#FEFFFF" transform="matrix(1.00, 0.00, -0.00, -1.00, 330.5, 633.4)">h</text><text xml:space="preserve" font-family="Helvetica-Light,Helvetica" font-size="80.0" fill="#FEFFFF" transform="matrix(1.00, 0.00, -0.00, -1.00, 375.0, 633.4)">e</text><text xml:space="preserve" font-family="Helvetica-Light,Helvetica" font-size="80.0" fill="#FEFFFF" transform="matrix(1.00, 0.00, -0.00, -1.00, 419.4, 633.4)"> </text><text xml:space="preserve" font-family="Helvetica-Light,Helvetica" font-size="80.0" fill="#FEFFFF" transform="matrix(1.00, 0.00, -0.00, -1.00, 441.7, 633.4)">P</text><text xml:space="preserve" font-family="Helvetica-Light,Helvetica" font-size="80.0" fill="#FEFFFF" transform="matrix(1.00, 0.00, -0.00, -1.00, 490.6, 633.4)">r</text><text xml:space="preserve" font-family="Helvetica-Light,Helvetica" font-size="80.0" fill="#FEFFFF" transform="matrix(1.00, 0.00, -0.00, -1.00, 515.8, 633.4)">o</text><text xml:space="preserve" font-family="Helvetica-Light,Helvetica" font-size="80.0" fill="#FEFFFF" transform="matrix(1.00, 0.00, -0.00, -1.00, 560.2, 633.4)">b</text><text xml:space="preserve" font-family="Helvetica-Light,Helvetica" font-size="80.0" fill="#FEFFFF" transform="matrix(1.00, 0.00, -0.00, -1.00, 609.1, 633.4)">l</text><text xml:space="preserve" font-family="Helvetica-Light,Helvetica" font-size="80.0" fill="#FEFFFF" transform="matrix(1.00, 0.00, -0.00, -1.00, 626.9, 633.4)">e</text><text xml:space="preserve" font-family="Helvetica-Light,Helvetica" font-size="80.0" fill="#FEFFFF" transform="matrix(1.00, 0.00, -0.00, -1.00, 671.4, 633.4)">m</text><g><g><clipPath id="clip0x6100006af6c0"><path d="M 19.5 590.5 L 1004.9 590.5 L 1004.9 139.5 L 19.5 139.5 Z M 19.5 590.5 "></path></clipPath><g clip-path="url(#clip0x6100006af6c0)"><g><clipPath id="clip0x6100006af840"><path d="M 20.5 515.5 L 464.9 515.5 L 464.9 589.5 L 20.5 589.5 Z M 20.5 515.5 "></path></clipPath><g clip-path="url(#clip0x6100006af840)"><text xml:space="preserve" font-family="Monaco,Monaco" font-size="30.0" fill="#FEFFFE" transform="matrix(1.00, 0.00, -0.00, -1.00, 71.7, 540.5)">i</text><text xml:space="preserve" font-family="Monaco,Monaco" font-size="30.0" fill="#FEFFFE" transform="matrix(1.00, 0.00, -0.00, -1.00, 89.7, 540.5)">t</text><text xml:space="preserve" font-family="Monaco,Monaco" font-size="30.0" fill="#FEFFFE" transform="matrix(1.00, 0.00, -0.00, -1.00, 107.7, 540.5)"> </text><text xml:space="preserve" font-family="Monaco,Monaco" font-size="30.0" fill="#FEFFFE" transform="matrix(1.00, 0.00, -0.00, -1.00, 125.7, 540.5)">'</text><text xml:space="preserve" font-family="Monaco,Monaco" font-size="30.0" fill="#FEFFFE" transform="matrix(1.00, 0.00, -0.00, -1.00, 143.7, 540.5)">s</text><text xml:space="preserve" font-family="Monaco,Monaco" font-size="30.0" fill="#FEFFFE" transform="matrix(1.00, 0.00, -0.00, -1.00, 161.7, 540.5)">a</text><text xml:space="preserve" font-family="Monaco,Monaco" font-size="30.0" fill="#FEFFFE" transform="matrix(1.00, 0.00, -0.00, -1.00, 179.7, 540.5)">v</text><text xml:space="preserve" font-family="Monaco,Monaco" font-size="30.0" fill="#FEFFFE" transform="matrix(1.00, 0.00, -0.00, -1.00, 197.7, 540.5)">e</text><text xml:space="preserve" font-family="Monaco,Monaco" font-size="30.0" fill="#FEFFFE" transform="matrix(1.00, 0.00, -0.00, -1.00, 215.7, 540.5)">s</text><text xml:space="preserve" font-family="Monaco,Monaco" font-size="30.0" fill="#FEFFFE" transform="matrix(1.00, 0.00, -0.00, -1.00, 233.7, 540.5)"> </text><text xml:space="preserve" font-family="Monaco,Monaco" font-size="30.0" fill="#FEFFFE" transform="matrix(1.00, 0.00, -0.00, -1.00, 251.7, 540.5)">a</text><text xml:space="preserve" font-family="Monaco,Monaco" font-size="30.0" fill="#FEFFFE" transform="matrix(1.00, 0.00, -0.00, -1.00, 269.7, 540.5)"> </text><text xml:space="preserve" font-family="Monaco,Monaco" font-size="30.0" fill="#FEFFFE" transform="matrix(1.00, 0.00, -0.00, -1.00, 287.7, 540.5)">r</text><text xml:space="preserve" font-family="Monaco,Monaco" font-size="30.0" fill="#FEFFFE" transform="matrix(1.00, 0.00, -0.00, -1.00, 305.8, 540.5)">e</text><text xml:space="preserve" font-family="Monaco,Monaco" font-size="30.0" fill="#FEFFFE" transform="matrix(1.00, 0.00, -0.00, -1.00, 323.8, 540.5)">c</text><text xml:space="preserve" font-family="Monaco,Monaco" font-size="30.0" fill="#FEFFFE" transform="matrix(1.00, 0.00, -0.00, -1.00, 341.8, 540.5)">o</text><text xml:space="preserve" font-family="Monaco,Monaco" font-size="30.0" fill="#FEFFFE" transform="matrix(1.00, 0.00, -0.00, -1.00, 359.8, 540.5)">r</text><text xml:space="preserve" font-family="Monaco,Monaco" font-size="30.0" fill="#FEFFFE" transform="matrix(1.00, 0.00, -0.00, -1.00, 377.8, 540.5)">d</text><text xml:space="preserve" font-family="Monaco,Monaco" font-size="30.0" fill="#FEFFFE" transform="matrix(1.00, 0.00, -0.00, -1.00, 395.8, 540.5)">'</text></g></g></g></g><g><clipPath id="clip0x6100006b0140"><path d="M 19.5 590.5 L 1004.9 590.5 L 1004.9 139.5 L 19.5 139.5 Z M 19.5 590.5 "></path></clipPath><g clip-path="url(#clip0x6100006b0140)"><g><clipPath id="clip0x6100006b02c0"><path d="M 465.9 515.5 L 1003.9 515.5 L 1003.9 589.5 L 465.9 589.5 Z M 465.9 515.5 "></path></clipPath><g clip-path="url(#clip0x6100006b02c0)"><text xml:space="preserve" font-family="Monaco,Monaco" font-size="30.0" fill="#FEFFFE" transform="matrix(1.00, 0.00, -0.00, -1.00, 563.9, 540.5)">i</text><text xml:space="preserve" font-family="Monaco,Monaco" font-size="30.0" fill="#FEFFFE" transform="matrix(1.00, 0.00, -0.00, -1.00, 581.9, 540.5)">t</text><text xml:space="preserve" font-family="Monaco,Monaco" font-size="30.0" fill="#FEFFFE" transform="matrix(1.00, 0.00, -0.00, -1.00, 599.9, 540.5)"> </text><text xml:space="preserve" font-family="Monaco,Monaco" font-size="30.0" fill="#FEFFFE" transform="matrix(1.00, 0.00, -0.00, -1.00, 617.9, 540.5)">'</text><text xml:space="preserve" font-family="Monaco,Monaco" font-size="30.0" fill="#FEFFFE" transform="matrix(1.00, 0.00, -0.00, -1.00, 635.9, 540.5)">e</text><text xml:space="preserve" font-family="Monaco,Monaco" font-size="30.0" fill="#FEFFFE" transform="matrix(1.00, 0.00, -0.00, -1.00, 653.9, 540.5)">d</text><text xml:space="preserve" font-family="Monaco,Monaco" font-size="30.0" fill="#FEFFFE" transform="matrix(1.00, 0.00, -0.00, -1.00, 671.9, 540.5)">i</text><text xml:space="preserve" font-family="Monaco,Monaco" font-size="30.0" fill="#FEFFFE" transform="matrix(1.00, 0.00, -0.00, -1.00, 689.9, 540.5)">t</text><text xml:space="preserve" font-family="Monaco,Monaco" font-size="30.0" fill="#FEFFFE" transform="matrix(1.00, 0.00, -0.00, -1.00, 707.9, 540.5)">s</text><text xml:space="preserve" font-family="Monaco,Monaco" font-size="30.0" fill="#FEFFFE" transform="matrix(1.00, 0.00, -0.00, -1.00, 725.9, 540.5)"> </text><text xml:space="preserve" font-family="Monaco,Monaco" font-size="30.0" fill="#FEFFFE" transform="matrix(1.00, 0.00, -0.00, -1.00, 743.9, 540.5)">a</text><text xml:space="preserve" font-family="Monaco,Monaco" font-size="30.0" fill="#FEFFFE" transform="matrix(1.00, 0.00, -0.00, -1.00, 761.9, 540.5)"> </text><text xml:space="preserve" font-family="Monaco,Monaco" font-size="30.0" fill="#FEFFFE" transform="matrix(1.00, 0.00, -0.00, -1.00, 779.9, 540.5)">r</text><text xml:space="preserve" font-family="Monaco,Monaco" font-size="30.0" fill="#FEFFFE" transform="matrix(1.00, 0.00, -0.00, -1.00, 798.0, 540.5)">e</text><text xml:space="preserve" font-family="Monaco,Monaco" font-size="30.0" fill="#FEFFFE" transform="matrix(1.00, 0.00, -0.00, -1.00, 816.0, 540.5)">c</text><text xml:space="preserve" font-family="Monaco,Monaco" font-size="30.0" fill="#FEFFFE" transform="matrix(1.00, 0.00, -0.00, -1.00, 834.0, 540.5)">o</text><text xml:space="preserve" font-family="Monaco,Monaco" font-size="30.0" fill="#FEFFFE" transform="matrix(1.00, 0.00, -0.00, -1.00, 852.0, 540.5)">r</text><text xml:space="preserve" font-family="Monaco,Monaco" font-size="30.0" fill="#FEFFFE" transform="matrix(1.00, 0.00, -0.00, -1.00, 870.0, 540.5)">d</text><text xml:space="preserve" font-family="Monaco,Monaco" font-size="30.0" fill="#FEFFFE" transform="matrix(1.00, 0.00, -0.00, -1.00, 888.0, 540.5)">'</text></g></g></g></g><g><clipPath id="clip0x6100006b0bc0"><path d="M 19.5 590.5 L 1004.9 590.5 L 1004.9 139.5 L 19.5 139.5 Z M 19.5 590.5 "></path></clipPath><g clip-path="url(#clip0x6100006b0bc0)"><g><clipPath id="clip0x6100006b0d40"><path d="M 20.5 440.5 L 464.9 440.5 L 464.9 514.5 L 20.5 514.5 Z M 20.5 440.5 "></path></clipPath><g clip-path="url(#clip0x6100006b0d40)"><text xml:space="preserve" font-family="Monaco,Monaco" font-size="22.0" fill="#FEFFFE" transform="matrix(1.00, 0.00, -0.00, -1.00, 24.5, 468.8)">m</text><text xml:space="preserve" font-family="Monaco,Monaco" font-size="22.0" fill="#FEFFFE" transform="matrix(1.00, 0.00, -0.00, -1.00, 37.7, 468.8)">o</text><text xml:space="preserve" font-family="Monaco,Monaco" font-size="22.0" fill="#FEFFFE" transform="matrix(1.00, 0.00, -0.00, -1.00, 50.9, 468.8)">d</text><text xml:space="preserve" font-family="Monaco,Monaco" font-size="22.0" fill="#FEFFFE" transform="matrix(1.00, 0.00, -0.00, -1.00, 64.1, 468.8)">e</text><text xml:space="preserve" font-family="Monaco,Monaco" font-size="22.0" fill="#FEFFFE" transform="matrix(1.00, 0.00, -0.00, -1.00, 77.3, 468.8)">l</text><text xml:space="preserve" font-family="Monaco,Monaco" font-size="22.0" fill="#FEFFFE" transform="matrix(1.00, 0.00, -0.00, -1.00, 90.5, 468.8)"> </text><text xml:space="preserve" font-family="Monaco,Monaco" font-size="22.0" fill="#FEFFFE" transform="matrix(1.00, 0.00, -0.00, -1.00, 103.7, 468.8)">=</text><text xml:space="preserve" font-family="Monaco,Monaco" font-size="22.0" fill="#FEFFFE" transform="matrix(1.00, 0.00, -0.00, -1.00, 116.9, 468.8)"> </text><text xml:space="preserve" font-family="Monaco,Monaco" font-size="22.0" fill="#FEFFFE" transform="matrix(1.00, 0.00, -0.00, -1.00, 130.1, 468.8)">M</text><text xml:space="preserve" font-family="Monaco,Monaco" font-size="22.0" fill="#FEFFFE" transform="matrix(1.00, 0.00, -0.00, -1.00, 143.3, 468.8)">o</text><text xml:space="preserve" font-family="Monaco,Monaco" font-size="22.0" fill="#FEFFFE" transform="matrix(1.00, 0.00, -0.00, -1.00, 156.5, 468.8)">d</text><text xml:space="preserve" font-family="Monaco,Monaco" font-size="22.0" fill="#FEFFFE" transform="matrix(1.00, 0.00, -0.00, -1.00, 169.7, 468.8)">e</text><text xml:space="preserve" font-family="Monaco,Monaco" font-size="22.0" fill="#FEFFFE" transform="matrix(1.00, 0.00, -0.00, -1.00, 183.0, 468.8)">l</text><text xml:space="preserve" font-family="Monaco,Monaco" font-size="22.0" fill="#FEFFFE" transform="matrix(1.00, 0.00, -0.00, -1.00, 196.2, 468.8)">.</text><text xml:space="preserve" font-family="Monaco,Monaco" font-size="22.0" fill="#FEFFFE" transform="matrix(1.00, 0.00, -0.00, -1.00, 209.4, 468.8)">c</text><text xml:space="preserve" font-family="Monaco,Monaco" font-size="22.0" fill="#FEFFFE" transform="matrix(1.00, 0.00, -0.00, -1.00, 222.6, 468.8)">r</text><text xml:space="preserve" font-family="Monaco,Monaco" font-size="22.0" fill="#FEFFFE" transform="matrix(1.00, 0.00, -0.00, -1.00, 235.8, 468.8)">e</text><text xml:space="preserve" font-family="Monaco,Monaco" font-size="22.0" fill="#FEFFFE" transform="matrix(1.00, 0.00, -0.00, -1.00, 249.0, 468.8)">a</text><text xml:space="preserve" font-family="Monaco,Monaco" font-size="22.0" fill="#FEFFFE" transform="matrix(1.00, 0.00, -0.00, -1.00, 262.2, 468.8)">t</text><text xml:space="preserve" font-family="Monaco,Monaco" font-size="22.0" fill="#FEFFFE" transform="matrix(1.00, 0.00, -0.00, -1.00, 275.4, 468.8)">e</text><text xml:space="preserve" font-family="Monaco,Monaco" font-size="22.0" fill="#FEFFFE" transform="matrix(1.00, 0.00, -0.00, -1.00, 288.6, 468.8)">!</text></g></g></g></g><g><clipPath id="clip0x6100006b1700"><path d="M 19.5 590.5 L 1004.9 590.5 L 1004.9 139.5 L 19.5 139.5 Z M 19.5 590.5 "></path></clipPath><g clip-path="url(#clip0x6100006b1700)"><g><clipPath id="clip0x6100006b1880"><path d="M 465.9 365.5 L 1003.9 365.5 L 1003.9 439.5 L 465.9 439.5 Z M 465.9 365.5 "></path></clipPath><g clip-path="url(#clip0x6100006b1880)"><text xml:space="preserve" font-family="Monaco,Monaco" font-size="22.0" fill="#FEFFFE" transform="matrix(1.00, 0.00, -0.00, -1.00, 469.9, 393.8)">m</text><text xml:space="preserve" font-family="Monaco,Monaco" font-size="22.0" fill="#FEFFFE" transform="matrix(1.00, 0.00, -0.00, -1.00, 483.1, 393.8)">o</text><text xml:space="preserve" font-family="Monaco,Monaco" font-size="22.0" fill="#FEFFFE" transform="matrix(1.00, 0.00, -0.00, -1.00, 496.3, 393.8)">d</text><text xml:space="preserve" font-family="Monaco,Monaco" font-size="22.0" fill="#FEFFFE" transform="matrix(1.00, 0.00, -0.00, -1.00, 509.5, 393.8)">e</text><text xml:space="preserve" font-family="Monaco,Monaco" font-size="22.0" fill="#FEFFFE" transform="matrix(1.00, 0.00, -0.00, -1.00, 522.7, 393.8)">l</text><text xml:space="preserve" font-family="Monaco,Monaco" font-size="22.0" fill="#FEFFFE" transform="matrix(1.00, 0.00, -0.00, -1.00, 535.9, 393.8)"> </text><text xml:space="preserve" font-family="Monaco,Monaco" font-size="22.0" fill="#FEFFFE" transform="matrix(1.00, 0.00, -0.00, -1.00, 549.1, 393.8)">=</text><text xml:space="preserve" font-family="Monaco,Monaco" font-size="22.0" fill="#FEFFFE" transform="matrix(1.00, 0.00, -0.00, -1.00, 562.3, 393.8)"> </text><text xml:space="preserve" font-family="Monaco,Monaco" font-size="22.0" fill="#FEFFFE" transform="matrix(1.00, 0.00, -0.00, -1.00, 575.5, 393.8)">M</text><text xml:space="preserve" font-family="Monaco,Monaco" font-size="22.0" fill="#FEFFFE" transform="matrix(1.00, 0.00, -0.00, -1.00, 588.7, 393.8)">o</text><text xml:space="preserve" font-family="Monaco,Monaco" font-size="22.0" fill="#FEFFFE" transform="matrix(1.00, 0.00, -0.00, -1.00, 601.9, 393.8)">d</text><text xml:space="preserve" font-family="Monaco,Monaco" font-size="22.0" fill="#FEFFFE" transform="matrix(1.00, 0.00, -0.00, -1.00, 615.2, 393.8)">e</text><text xml:space="preserve" font-family="Monaco,Monaco" font-size="22.0" fill="#FEFFFE" transform="matrix(1.00, 0.00, -0.00, -1.00, 628.4, 393.8)">l</text><text xml:space="preserve" font-family="Monaco,Monaco" font-size="22.0" fill="#FEFFFE" transform="matrix(1.00, 0.00, -0.00, -1.00, 641.6, 393.8)">.</text><text xml:space="preserve" font-family="Monaco,Monaco" font-size="22.0" fill="#FEFFFE" transform="matrix(1.00, 0.00, -0.00, -1.00, 654.8, 393.8)">c</text><text xml:space="preserve" font-family="Monaco,Monaco" font-size="22.0" fill="#FEFFFE" transform="matrix(1.00, 0.00, -0.00, -1.00, 668.0, 393.8)">r</text><text xml:space="preserve" font-family="Monaco,Monaco" font-size="22.0" fill="#FEFFFE" transform="matrix(1.00, 0.00, -0.00, -1.00, 681.2, 393.8)">e</text><text xml:space="preserve" font-family="Monaco,Monaco" font-size="22.0" fill="#FEFFFE" transform="matrix(1.00, 0.00, -0.00, -1.00, 694.4, 393.8)">a</text><text xml:space="preserve" font-family="Monaco,Monaco" font-size="22.0" fill="#FEFFFE" transform="matrix(1.00, 0.00, -0.00, -1.00, 707.6, 393.8)">t</text><text xml:space="preserve" font-family="Monaco,Monaco" font-size="22.0" fill="#FEFFFE" transform="matrix(1.00, 0.00, -0.00, -1.00, 720.8, 393.8)">e</text><text xml:space="preserve" font-family="Monaco,Monaco" font-size="22.0" fill="#FEFFFE" transform="matrix(1.00, 0.00, -0.00, -1.00, 734.0, 393.8)">!</text></g></g></g></g><g><clipPath id="clip0x6100006b2240"><path d="M 19.5 590.5 L 1004.9 590.5 L 1004.9 139.5 L 19.5 139.5 Z M 19.5 590.5 "></path></clipPath><g clip-path="url(#clip0x6100006b2240)"><g><clipPath id="clip0x6100006b23c0"><path d="M 465.9 290.5 L 1003.9 290.5 L 1003.9 364.5 L 465.9 364.5 Z M 465.9 290.5 "></path></clipPath><g clip-path="url(#clip0x6100006b23c0)"><text xml:space="preserve" font-family="Monaco,Monaco" font-size="22.0" fill="#FEFFFE" transform="matrix(1.00, 0.00, -0.00, -1.00, 469.9, 318.8)">m</text><text xml:space="preserve" font-family="Monaco,Monaco" font-size="22.0" fill="#FEFFFE" transform="matrix(1.00, 0.00, -0.00, -1.00, 483.1, 318.8)">o</text><text xml:space="preserve" font-family="Monaco,Monaco" font-size="22.0" fill="#FEFFFE" transform="matrix(1.00, 0.00, -0.00, -1.00, 496.3, 318.8)">d</text><text xml:space="preserve" font-family="Monaco,Monaco" font-size="22.0" fill="#FEFFFE" transform="matrix(1.00, 0.00, -0.00, -1.00, 509.5, 318.8)">e</text><text xml:space="preserve" font-family="Monaco,Monaco" font-size="22.0" fill="#FEFFFE" transform="matrix(1.00, 0.00, -0.00, -1.00, 522.7, 318.8)">l</text><text xml:space="preserve" font-family="Monaco,Monaco" font-size="22.0" fill="#FEFFFE" transform="matrix(1.00, 0.00, -0.00, -1.00, 535.9, 318.8)">.</text><text xml:space="preserve" font-family="Monaco,Monaco" font-size="22.0" fill="#FEFFFE" transform="matrix(1.00, 0.00, -0.00, -1.00, 549.1, 318.8)">u</text><text xml:space="preserve" font-family="Monaco,Monaco" font-size="22.0" fill="#FEFFFE" transform="matrix(1.00, 0.00, -0.00, -1.00, 562.3, 318.8)">p</text><text xml:space="preserve" font-family="Monaco,Monaco" font-size="22.0" fill="#FEFFFE" transform="matrix(1.00, 0.00, -0.00, -1.00, 575.5, 318.8)">d</text><text xml:space="preserve" font-family="Monaco,Monaco" font-size="22.0" fill="#FEFFFE" transform="matrix(1.00, 0.00, -0.00, -1.00, 588.7, 318.8)">a</text><text xml:space="preserve" font-family="Monaco,Monaco" font-size="22.0" fill="#FEFFFE" transform="matrix(1.00, 0.00, -0.00, -1.00, 601.9, 318.8)">t</text><text xml:space="preserve" font-family="Monaco,Monaco" font-size="22.0" fill="#FEFFFE" transform="matrix(1.00, 0.00, -0.00, -1.00, 615.2, 318.8)">e</text><text xml:space="preserve" font-family="Monaco,Monaco" font-size="22.0" fill="#FEFFFE" transform="matrix(1.00, 0.00, -0.00, -1.00, 628.4, 318.8)">_</text><text xml:space="preserve" font-family="Monaco,Monaco" font-size="22.0" fill="#FEFFFE" transform="matrix(1.00, 0.00, -0.00, -1.00, 641.6, 318.8)">a</text><text xml:space="preserve" font-family="Monaco,Monaco" font-size="22.0" fill="#FEFFFE" transform="matrix(1.00, 0.00, -0.00, -1.00, 654.8, 318.8)">t</text><text xml:space="preserve" font-family="Monaco,Monaco" font-size="22.0" fill="#FEFFFE" transform="matrix(1.00, 0.00, -0.00, -1.00, 668.0, 318.8)">t</text><text xml:space="preserve" font-family="Monaco,Monaco" font-size="22.0" fill="#FEFFFE" transform="matrix(1.00, 0.00, -0.00, -1.00, 681.2, 318.8)">r</text><text xml:space="preserve" font-family="Monaco,Monaco" font-size="22.0" fill="#FEFFFE" transform="matrix(1.00, 0.00, -0.00, -1.00, 694.4, 318.8)">i</text><text xml:space="preserve" font-family="Monaco,Monaco" font-size="22.0" fill="#FEFFFE" transform="matrix(1.00, 0.00, -0.00, -1.00, 707.6, 318.8)">b</text><text xml:space="preserve" font-family="Monaco,Monaco" font-size="22.0" fill="#FEFFFE" transform="matrix(1.00, 0.00, -0.00, -1.00, 720.8, 318.8)">u</text><text xml:space="preserve" font-family="Monaco,Monaco" font-size="22.0" fill="#FEFFFE" transform="matrix(1.00, 0.00, -0.00, -1.00, 734.0, 318.8)">t</text><text xml:space="preserve" font-family="Monaco,Monaco" font-size="22.0" fill="#FEFFFE" transform="matrix(1.00, 0.00, -0.00, -1.00, 747.2, 318.8)">e</text><text xml:space="preserve" font-family="Monaco,Monaco" font-size="22.0" fill="#FEFFFE" transform="matrix(1.00, 0.00, -0.00, -1.00, 760.4, 318.8)">s</text><text xml:space="preserve" font-family="Monaco,Monaco" font-size="22.0" fill="#FEFFFE" transform="matrix(1.00, 0.00, -0.00, -1.00, 773.6, 318.8)">(</text><text xml:space="preserve" font-family="Monaco,Monaco" font-size="22.0" fill="#FEFFFE" transform="matrix(1.00, 0.00, -0.00, -1.00, 786.8, 318.8)">n</text><text xml:space="preserve" font-family="Monaco,Monaco" font-size="22.0" fill="#FEFFFE" transform="matrix(1.00, 0.00, -0.00, -1.00, 800.0, 318.8)">a</text><text xml:space="preserve" font-family="Monaco,Monaco" font-size="22.0" fill="#FEFFFE" transform="matrix(1.00, 0.00, -0.00, -1.00, 813.2, 318.8)">m</text><text xml:space="preserve" font-family="Monaco,Monaco" font-size="22.0" fill="#FEFFFE" transform="matrix(1.00, 0.00, -0.00, -1.00, 826.4, 318.8)">e</text><text xml:space="preserve" font-family="Monaco,Monaco" font-size="22.0" fill="#FEFFFE" transform="matrix(1.00, 0.00, -0.00, -1.00, 839.6, 318.8)">:</text><text xml:space="preserve" font-family="Monaco,Monaco" font-size="22.0" fill="#FEFFFE" transform="matrix(1.00, 0.00, -0.00, -1.00, 852.8, 318.8)"> </text><text xml:space="preserve" font-family="Monaco,Monaco" font-size="22.0" fill="#FEFFFE" transform="matrix(1.00, 0.00, -0.00, -1.00, 866.0, 318.8)">'</text><text xml:space="preserve" font-family="Monaco,Monaco" font-size="22.0" fill="#FEFFFE" transform="matrix(1.00, 0.00, -0.00, -1.00, 879.2, 318.8)">c</text><text xml:space="preserve" font-family="Monaco,Monaco" font-size="22.0" fill="#FEFFFE" transform="matrix(1.00, 0.00, -0.00, -1.00, 892.4, 318.8)">h</text><text xml:space="preserve" font-family="Monaco,Monaco" font-size="22.0" fill="#FEFFFE" transform="matrix(1.00, 0.00, -0.00, -1.00, 905.6, 318.8)">a</text><text xml:space="preserve" font-family="Monaco,Monaco" font-size="22.0" fill="#FEFFFE" transform="matrix(1.00, 0.00, -0.00, -1.00, 918.9, 318.8)">n</text><text xml:space="preserve" font-family="Monaco,Monaco" font-size="22.0" fill="#FEFFFE" transform="matrix(1.00, 0.00, -0.00, -1.00, 932.1, 318.8)">g</text><text xml:space="preserve" font-family="Monaco,Monaco" font-size="22.0" fill="#FEFFFE" transform="matrix(1.00, 0.00, -0.00, -1.00, 945.3, 318.8)">e</text><text xml:space="preserve" font-family="Monaco,Monaco" font-size="22.0" fill="#FEFFFE" transform="matrix(1.00, 0.00, -0.00, -1.00, 958.5, 318.8)">d</text><text xml:space="preserve" font-family="Monaco,Monaco" font-size="22.0" fill="#FEFFFE" transform="matrix(1.00, 0.00, -0.00, -1.00, 971.7, 318.8)">'</text><text xml:space="preserve" font-family="Monaco,Monaco" font-size="22.0" fill="#FEFFFE" transform="matrix(1.00, 0.00, -0.00, -1.00, 984.9, 318.8)">)</text></g></g></g></g><g><clipPath id="clip0x6100006b34a0"><path d="M 19.5 590.5 L 1004.9 590.5 L 1004.9 139.5 L 19.5 139.5 Z M 19.5 590.5 "></path></clipPath><g clip-path="url(#clip0x6100006b34a0)"><g><clipPath id="clip0x6100006b3620"><path d="M 465.9 215.5 L 1003.9 215.5 L 1003.9 289.5 L 465.9 289.5 Z M 465.9 215.5 "></path></clipPath><g clip-path="url(#clip0x6100006b3620)"><text xml:space="preserve" font-family="Monaco,Monaco" font-size="22.0" fill="#FEFFFE" transform="matrix(1.00, 0.00, -0.00, -1.00, 469.9, 243.8)">M</text><text xml:space="preserve" font-family="Monaco,Monaco" font-size="22.0" fill="#FEFFFE" transform="matrix(1.00, 0.00, -0.00, -1.00, 483.1, 243.8)">o</text><text xml:space="preserve" font-family="Monaco,Monaco" font-size="22.0" fill="#FEFFFE" transform="matrix(1.00, 0.00, -0.00, -1.00, 496.3, 243.8)">d</text><text xml:space="preserve" font-family="Monaco,Monaco" font-size="22.0" fill="#FEFFFE" transform="matrix(1.00, 0.00, -0.00, -1.00, 509.5, 243.8)">e</text><text xml:space="preserve" font-family="Monaco,Monaco" font-size="22.0" fill="#FEFFFE" transform="matrix(1.00, 0.00, -0.00, -1.00, 522.7, 243.8)">l</text><text xml:space="preserve" font-family="Monaco,Monaco" font-size="22.0" fill="#FEFFFE" transform="matrix(1.00, 0.00, -0.00, -1.00, 535.9, 243.8)">.</text><text xml:space="preserve" font-family="Monaco,Monaco" font-size="22.0" fill="#FEFFFE" transform="matrix(1.00, 0.00, -0.00, -1.00, 549.1, 243.8)">l</text><text xml:space="preserve" font-family="Monaco,Monaco" font-size="22.0" fill="#FEFFFE" transform="matrix(1.00, 0.00, -0.00, -1.00, 562.3, 243.8)">a</text><text xml:space="preserve" font-family="Monaco,Monaco" font-size="22.0" fill="#FEFFFE" transform="matrix(1.00, 0.00, -0.00, -1.00, 575.5, 243.8)">s</text><text xml:space="preserve" font-family="Monaco,Monaco" font-size="22.0" fill="#FEFFFE" transform="matrix(1.00, 0.00, -0.00, -1.00, 588.7, 243.8)">t</text><text xml:space="preserve" font-family="Monaco,Monaco" font-size="22.0" fill="#FEFFFE" transform="matrix(1.00, 0.00, -0.00, -1.00, 601.9, 243.8)">.</text><text xml:space="preserve" font-family="Monaco,Monaco" font-size="22.0" fill="#FEFFFE" transform="matrix(1.00, 0.00, -0.00, -1.00, 615.2, 243.8)">n</text><text xml:space="preserve" font-family="Monaco,Monaco" font-size="22.0" fill="#FEFFFE" transform="matrix(1.00, 0.00, -0.00, -1.00, 628.4, 243.8)">a</text><text xml:space="preserve" font-family="Monaco,Monaco" font-size="22.0" fill="#FEFFFE" transform="matrix(1.00, 0.00, -0.00, -1.00, 641.6, 243.8)">m</text><text xml:space="preserve" font-family="Monaco,Monaco" font-size="22.0" fill="#FEFFFE" transform="matrix(1.00, 0.00, -0.00, -1.00, 654.8, 243.8)">e</text><text xml:space="preserve" font-family="Monaco,Monaco" font-size="22.0" fill="#FEFFFE" transform="matrix(1.00, 0.00, -0.00, -1.00, 668.0, 243.8)">.</text><text xml:space="preserve" font-family="Monaco,Monaco" font-size="22.0" fill="#FEFFFE" transform="matrix(1.00, 0.00, -0.00, -1.00, 681.2, 243.8)">m</text><text xml:space="preserve" font-family="Monaco,Monaco" font-size="22.0" fill="#FEFFFE" transform="matrix(1.00, 0.00, -0.00, -1.00, 694.4, 243.8)">u</text><text xml:space="preserve" font-family="Monaco,Monaco" font-size="22.0" fill="#FEFFFE" transform="matrix(1.00, 0.00, -0.00, -1.00, 707.6, 243.8)">s</text><text xml:space="preserve" font-family="Monaco,Monaco" font-size="22.0" fill="#FEFFFE" transform="matrix(1.00, 0.00, -0.00, -1.00, 720.8, 243.8)">t</text><text xml:space="preserve" font-family="Monaco,Monaco" font-size="22.0" fill="#FEFFFE" transform="matrix(1.00, 0.00, -0.00, -1.00, 734.0, 243.8)">_</text><text xml:space="preserve" font-family="Monaco,Monaco" font-size="22.0" fill="#FEFFFE" transform="matrix(1.00, 0.00, -0.00, -1.00, 747.2, 243.8)">e</text><text xml:space="preserve" font-family="Monaco,Monaco" font-size="22.0" fill="#FEFFFE" transform="matrix(1.00, 0.00, -0.00, -1.00, 760.4, 243.8)">q</text><text xml:space="preserve" font-family="Monaco,Monaco" font-size="22.0" fill="#FEFFFE" transform="matrix(1.00, 0.00, -0.00, -1.00, 773.6, 243.8)">u</text><text xml:space="preserve" font-family="Monaco,Monaco" font-size="22.0" fill="#FEFFFE" transform="matrix(1.00, 0.00, -0.00, -1.00, 786.8, 243.8)">a</text><text xml:space="preserve" font-family="Monaco,Monaco" font-size="22.0" fill="#FEFFFE" transform="matrix(1.00, 0.00, -0.00, -1.00, 800.0, 243.8)">l</text><text xml:space="preserve" font-family="Monaco,Monaco" font-size="22.0" fill="#FEFFFE" transform="matrix(1.00, 0.00, -0.00, -1.00, 813.2, 243.8)"> </text><text xml:space="preserve" font-family="Monaco,Monaco" font-size="22.0" fill="#FEFFFE" transform="matrix(1.00, 0.00, -0.00, -1.00, 826.4, 243.8)">'</text><text xml:space="preserve" font-family="Monaco,Monaco" font-size="22.0" fill="#FEFFFE" transform="matrix(1.00, 0.00, -0.00, -1.00, 839.6, 243.8)">c</text><text xml:space="preserve" font-family="Monaco,Monaco" font-size="22.0" fill="#FEFFFE" transform="matrix(1.00, 0.00, -0.00, -1.00, 852.8, 243.8)">h</text><text xml:space="preserve" font-family="Monaco,Monaco" font-size="22.0" fill="#FEFFFE" transform="matrix(1.00, 0.00, -0.00, -1.00, 866.0, 243.8)">a</text><text xml:space="preserve" font-family="Monaco,Monaco" font-size="22.0" fill="#FEFFFE" transform="matrix(1.00, 0.00, -0.00, -1.00, 879.2, 243.8)">n</text><text xml:space="preserve" font-family="Monaco,Monaco" font-size="22.0" fill="#FEFFFE" transform="matrix(1.00, 0.00, -0.00, -1.00, 892.4, 243.8)">g</text><text xml:space="preserve" font-family="Monaco,Monaco" font-size="22.0" fill="#FEFFFE" transform="matrix(1.00, 0.00, -0.00, -1.00, 905.6, 243.8)">e</text><text xml:space="preserve" font-family="Monaco,Monaco" font-size="22.0" fill="#FEFFFE" transform="matrix(1.00, 0.00, -0.00, -1.00, 918.9, 243.8)">d</text><text xml:space="preserve" font-family="Monaco,Monaco" font-size="22.0" fill="#FEFFFE" transform="matrix(1.00, 0.00, -0.00, -1.00, 932.1, 243.8)">'</text></g></g></g></g><g><clipPath id="clip0x6100006b4580"><path d="M 19.5 590.5 L 1004.9 590.5 L 1004.9 139.5 L 19.5 139.5 Z M 19.5 590.5 "></path></clipPath><g clip-path="url(#clip0x6100006b4580)"><g><clipPath id="clip0x6100006b4700"><path d="M 20.5 140.5 L 464.9 140.5 L 464.9 214.5 L 20.5 214.5 Z M 20.5 140.5 "></path></clipPath><g clip-path="url(#clip0x6100006b4700)"><text xml:space="preserve" font-family="Monaco,Monaco" font-size="22.0" fill="#FEFFFE" transform="matrix(1.00, 0.00, -0.00, -1.00, 24.5, 168.8)">M</text><text xml:space="preserve" font-family="Monaco,Monaco" font-size="22.0" fill="#FEFFFE" transform="matrix(1.00, 0.00, -0.00, -1.00, 37.7, 168.8)">o</text><text xml:space="preserve" font-family="Monaco,Monaco" font-size="22.0" fill="#FEFFFE" transform="matrix(1.00, 0.00, -0.00, -1.00, 50.9, 168.8)">d</text><text xml:space="preserve" font-family="Monaco,Monaco" font-size="22.0" fill="#FEFFFE" transform="matrix(1.00, 0.00, -0.00, -1.00, 64.1, 168.8)">e</text><text xml:space="preserve" font-family="Monaco,Monaco" font-size="22.0" fill="#FEFFFE" transform="matrix(1.00, 0.00, -0.00, -1.00, 77.3, 168.8)">l</text><text xml:space="preserve" font-family="Monaco,Monaco" font-size="22.0" fill="#FEFFFE" transform="matrix(1.00, 0.00, -0.00, -1.00, 90.5, 168.8)">.</text><text xml:space="preserve" font-family="Monaco,Monaco" font-size="22.0" fill="#FEFFFE" transform="matrix(1.00, 0.00, -0.00, -1.00, 103.7, 168.8)">l</text><text xml:space="preserve" font-family="Monaco,Monaco" font-size="22.0" fill="#FEFFFE" transform="matrix(1.00, 0.00, -0.00, -1.00, 116.9, 168.8)">a</text><text xml:space="preserve" font-family="Monaco,Monaco" font-size="22.0" fill="#FEFFFE" transform="matrix(1.00, 0.00, -0.00, -1.00, 130.1, 168.8)">s</text><text xml:space="preserve" font-family="Monaco,Monaco" font-size="22.0" fill="#FEFFFE" transform="matrix(1.00, 0.00, -0.00, -1.00, 143.3, 168.8)">t</text><text xml:space="preserve" font-family="Monaco,Monaco" font-size="22.0" fill="#FEFFFE" transform="matrix(1.00, 0.00, -0.00, -1.00, 156.5, 168.8)">.</text><text xml:space="preserve" font-family="Monaco,Monaco" font-size="22.0" fill="#FEFFFE" transform="matrix(1.00, 0.00, -0.00, -1.00, 169.7, 168.8)">i</text><text xml:space="preserve" font-family="Monaco,Monaco" font-size="22.0" fill="#FEFFFE" transform="matrix(1.00, 0.00, -0.00, -1.00, 183.0, 168.8)">d</text><text xml:space="preserve" font-family="Monaco,Monaco" font-size="22.0" fill="#FEFFFE" transform="matrix(1.00, 0.00, -0.00, -1.00, 196.2, 168.8)">.</text><text xml:space="preserve" font-family="Monaco,Monaco" font-size="22.0" fill="#FEFFFE" transform="matrix(1.00, 0.00, -0.00, -1.00, 209.4, 168.8)">m</text><text xml:space="preserve" font-family="Monaco,Monaco" font-size="22.0" fill="#FEFFFE" transform="matrix(1.00, 0.00, -0.00, -1.00, 222.6, 168.8)">u</text><text xml:space="preserve" font-family="Monaco,Monaco" font-size="22.0" fill="#FEFFFE" transform="matrix(1.00, 0.00, -0.00, -1.00, 235.8, 168.8)">s</text><text xml:space="preserve" font-family="Monaco,Monaco" font-size="22.0" fill="#FEFFFE" transform="matrix(1.00, 0.00, -0.00, -1.00, 249.0, 168.8)">t</text><text xml:space="preserve" font-family="Monaco,Monaco" font-size="22.0" fill="#FEFFFE" transform="matrix(1.00, 0.00, -0.00, -1.00, 262.2, 168.8)">_</text><text xml:space="preserve" font-family="Monaco,Monaco" font-size="22.0" fill="#FEFFFE" transform="matrix(1.00, 0.00, -0.00, -1.00, 275.4, 168.8)">e</text><text xml:space="preserve" font-family="Monaco,Monaco" font-size="22.0" fill="#FEFFFE" transform="matrix(1.00, 0.00, -0.00, -1.00, 288.6, 168.8)">q</text><text xml:space="preserve" font-family="Monaco,Monaco" font-size="22.0" fill="#FEFFFE" transform="matrix(1.00, 0.00, -0.00, -1.00, 301.8, 168.8)">u</text><text xml:space="preserve" font-family="Monaco,Monaco" font-size="22.0" fill="#FEFFFE" transform="matrix(1.00, 0.00, -0.00, -1.00, 315.0, 168.8)">a</text><text xml:space="preserve" font-family="Monaco,Monaco" font-size="22.0" fill="#FEFFFE" transform="matrix(1.00, 0.00, -0.00, -1.00, 328.2, 168.8)">l</text><text xml:space="preserve" font-family="Monaco,Monaco" font-size="22.0" fill="#FEFFFE" transform="matrix(1.00, 0.00, -0.00, -1.00, 341.4, 168.8)"> </text><text xml:space="preserve" font-family="Monaco,Monaco" font-size="22.0" fill="#FEFFFE" transform="matrix(1.00, 0.00, -0.00, -1.00, 354.6, 168.8)">m</text><text xml:space="preserve" font-family="Monaco,Monaco" font-size="22.0" fill="#FEFFFE" transform="matrix(1.00, 0.00, -0.00, -1.00, 367.8, 168.8)">o</text><text xml:space="preserve" font-family="Monaco,Monaco" font-size="22.0" fill="#FEFFFE" transform="matrix(1.00, 0.00, -0.00, -1.00, 381.0, 168.8)">d</text><text xml:space="preserve" font-family="Monaco,Monaco" font-size="22.0" fill="#FEFFFE" transform="matrix(1.00, 0.00, -0.00, -1.00, 394.2, 168.8)">e</text><text xml:space="preserve" font-family="Monaco,Monaco" font-size="22.0" fill="#FEFFFE" transform="matrix(1.00, 0.00, -0.00, -1.00, 407.4, 168.8)">l</text><text xml:space="preserve" font-family="Monaco,Monaco" font-size="22.0" fill="#FEFFFE" transform="matrix(1.00, 0.00, -0.00, -1.00, 420.6, 168.8)">.</text><text xml:space="preserve" font-family="Monaco,Monaco" font-size="22.0" fill="#FEFFFE" transform="matrix(1.00, 0.00, -0.00, -1.00, 433.8, 168.8)">i</text><text xml:space="preserve" font-family="Monaco,Monaco" font-size="22.0" fill="#FEFFFE" transform="matrix(1.00, 0.00, -0.00, -1.00, 447.0, 168.8)">d</text></g></g></g></g><g><clipPath id="clip0x6100006b5540"><path d="M 19.5 590.5 L 1004.9 590.5 L 1004.9 139.5 L 19.5 139.5 Z M 19.5 590.5 "></path></clipPath><g clip-path="url(#clip0x6100006b5540)"><g><clipPath id="clip0x6100006b56c0"><path d="M 0.0 0.0 L 1024.0 0.0 L 1024.0 768.0 L 0.0 768.0 Z M 0.0 0.0 "></path></clipPath><g clip-path="url(#clip0x6100006b56c0)"><path d="M 447.4 1.5 L 447.4 452.5 " fill="none" stroke="#D6D6D6" stroke-width="1.00" transform="matrix(1.00, 0.00, 0.00, -1.00, 18.0, 592.0)"></path><path d="M 1.5 77.0 L 986.9 77.0 " fill="none" stroke="#D6D6D6" stroke-width="1.00" transform="matrix(1.00, 0.00, 0.00, -1.00, 18.0, 592.0)"></path><path d="M 1.5 152.0 L 986.9 152.0 " fill="none" stroke="#D6D6D6" stroke-width="1.00" transform="matrix(1.00, 0.00, 0.00, -1.00, 18.0, 592.0)"></path><path d="M 1.5 227.0 L 986.9 227.0 " fill="none" stroke="#D6D6D6" stroke-width="1.00" transform="matrix(1.00, 0.00, 0.00, -1.00, 18.0, 592.0)"></path><path d="M 1.5 302.0 L 986.9 302.0 " fill="none" stroke="#D6D6D6" stroke-width="1.00" transform="matrix(1.00, 0.00, 0.00, -1.00, 18.0, 592.0)"></path><path d="M 1.5 377.0 L 986.9 377.0 " fill="none" stroke="#D6D6D6" stroke-width="1.00" transform="matrix(1.00, 0.00, 0.00, -1.00, 18.0, 592.0)"></path><path d="M 2.0 1.5 L 2.0 452.5 " fill="none" stroke="#D5D5D5" stroke-width="1.00" transform="matrix(1.00, 0.00, 0.00, -1.00, 18.0, 592.0)"></path><path d="M 986.4 1.5 L 986.4 452.5 " fill="none" stroke="#D5D5D5" stroke-width="1.00" transform="matrix(1.00, 0.00, 0.00, -1.00, 18.0, 592.0)"></path><path d="M 1.5 2.0 L 986.9 2.0 " fill="none" stroke="#D5D5D5" stroke-width="1.00" transform="matrix(1.00, 0.00, 0.00, -1.00, 18.0, 592.0)"></path><path d="M 1.5 452.0 L 986.9 452.0 " fill="none" stroke="#D5D5D5" stroke-width="1.00" transform="matrix(1.00, 0.00, 0.00, -1.00, 18.0, 592.0)"></path></g></g></g></g></g></g></svg>