<?xml version="1.0" encoding="UTF-8" standalone="no"?><svg xmlns="http://www.w3.org/2000/svg" xmlns:xlink="http://www.w3.org/1999/xlink" clip-rule="evenodd" stroke-miterlimit="10" viewBox="0 0 215 27"><desc>SVG generated by Keynote</desc><defs></defs><g transform="matrix(1.00, 0.00, -0.00, -1.00, 0.0, 27.0)"><text xml:space="preserve" font-family="Monaco,Monaco" font-size="28.0" fill="#FEFFFE" transform="matrix(1.00, 0.00, -0.00, -1.00, 1.2, 3.2)">M</text><text xml:space="preserve" font-family="Monaco,Monaco" font-size="28.0" fill="#FEFFFE" transform="matrix(1.00, 0.00, -0.00, -1.00, 18.0, 3.2)">o</text><text xml:space="preserve" font-family="Monaco,Monaco" font-size="28.0" fill="#FEFFFE" transform="matrix(1.00, 0.00, -0.00, -1.00, 34.9, 3.2)">d</text><text xml:space="preserve" font-family="Monaco,Monaco" font-size="28.0" fill="#FEFFFE" transform="matrix(1.00, 0.00, -0.00, -1.00, 51.7, 3.2)">e</text><text xml:space="preserve" font-family="Monaco,Monaco" font-size="28.0" fill="#FEFFFE" transform="matrix(1.00, 0.00, -0.00, -1.00, 68.5, 3.2)">l</text><text xml:space="preserve" font-family="Monaco,Monaco" font-size="28.0" fill="#FEFFFE" transform="matrix(1.00, 0.00, -0.00, -1.00, 85.3, 3.2)">.</text><text xml:space="preserve" font-family="Monaco,Monaco" font-size="28.0" fill="#FEFFFE" transform="matrix(1.00, 0.00, -0.00, -1.00, 102.1, 3.2)">c</text><text xml:space="preserve" font-family="Monaco,Monaco" font-size="28.0" fill="#FEFFFE" transform="matrix(1.00, 0.00, -0.00, -1.00, 118.9, 3.2)">r</text><text xml:space="preserve" font-family="Monaco,Monaco" font-size="28.0" fill="#FEFFFE" transform="matrix(1.00, 0.00, -0.00, -1.00, 135.7, 3.2)">e</text><text xml:space="preserve" font-family="Monaco,Monaco" font-size="28.0" fill="#FEFFFE" transform="matrix(1.00, 0.00, -0.00, -1.00, 152.5, 3.2)">a</text><text xml:space="preserve" font-family="Monaco,Monaco" font-size="28.0" fill="#FEFFFE" transform="matrix(1.00, 0.00, -0.00, -1.00, 169.3, 3.2)">t</text><text xml:space="preserve" font-family="Monaco,Monaco" font-size="28.0" fill="#FEFFFE" transform="matrix(1.00, 0.00, -0.00, -1.00, 186.1, 3.2)">e</text><text xml:space="preserve" font-family="Monaco,Monaco" font-size="28.0" fill="#FEFFFE" transform="matrix(1.00, 0.00, -0.00, -1.00, 202.9, 3.2)">!</text></g></svg>