<?xml version="1.0" encoding="UTF-8" standalone="no"?><svg xmlns="http://www.w3.org/2000/svg" xmlns:xlink="http://www.w3.org/1999/xlink" clip-rule="evenodd" stroke-miterlimit="10" viewBox="0 0 1024 768"><desc>SVG generated by Keynote</desc><defs></defs><g transform="matrix(1.00, 0.00, -0.00, -1.00, 0.0, 768.0)"><path d="M 0.0 768.0 L 1024.0 768.0 L 1024.0 0.0 L 0.0 0.0 Z M 0.0 768.0 " fill="#000000"></path><path d="M -0.2 -0.2 L 430.8 -0.2 L 430.8 211.8 L -0.2 211.8 Z M 0.0 0.0 " fill="none" stroke="#00F900" stroke-width="1.00" transform="matrix(1.00, 0.00, 0.00, -1.00, 55.7, 511.3)"></path><g><clipPath id="clip0x6000006b3740"><path d="M 53.7 301.0 L 488.8 301.0 L 488.8 513.3 L 53.7 513.3 Z M 53.7 301.0 "></path></clipPath><g clip-path="url(#clip0x6000006b3740)"><text xml:space="preserve" font-family="Helvetica-Light,Helvetica" font-size="28.0" fill="#00F900" transform="matrix(1.00, 0.00, -0.00, -1.00, 199.4, 478.7)">T</text><text xml:space="preserve" font-family="Helvetica-Light,Helvetica" font-size="28.0" fill="#00F900" transform="matrix(1.00, 0.00, -0.00, -1.00, 212.4, 478.7)">r</text><text xml:space="preserve" font-family="Helvetica-Light,Helvetica" font-size="28.0" fill="#00F900" transform="matrix(1.00, 0.00, -0.00, -1.00, 221.7, 478.7)">a</text><text xml:space="preserve" font-family="Helvetica-Light,Helvetica" font-size="28.0" fill="#00F900" transform="matrix(1.00, 0.00, -0.00, -1.00, 237.3, 478.7)">n</text><text xml:space="preserve" font-family="Helvetica-Light,Helvetica" font-size="28.0" fill="#00F900" transform="matrix(1.00, 0.00, -0.00, -1.00, 252.8, 478.7)">s</text><text xml:space="preserve" font-family="Helvetica-Light,Helvetica" font-size="28.0" fill="#00F900" transform="matrix(1.00, 0.00, -0.00, -1.00, 266.8, 478.7)">a</text><text xml:space="preserve" font-family="Helvetica-Light,Helvetica" font-size="28.0" fill="#00F900" transform="matrix(1.00, 0.00, -0.00, -1.00, 282.4, 478.7)">c</text><text xml:space="preserve" font-family="Helvetica-Light,Helvetica" font-size="28.0" fill="#00F900" transform="matrix(1.00, 0.00, -0.00, -1.00, 298.0, 478.7)">t</text><text xml:space="preserve" font-family="Helvetica-Light,Helvetica" font-size="28.0" fill="#00F900" transform="matrix(1.00, 0.00, -0.00, -1.00, 305.8, 478.7)">i</text><text xml:space="preserve" font-family="Helvetica-Light,Helvetica" font-size="28.0" fill="#00F900" transform="matrix(1.00, 0.00, -0.00, -1.00, 312.0, 478.7)">o</text><text xml:space="preserve" font-family="Helvetica-Light,Helvetica" font-size="28.0" fill="#00F900" transform="matrix(1.00, 0.00, -0.00, -1.00, 327.5, 478.7)">n</text></g></g><text xml:space="preserve" font-family="Helvetica-Light,Helvetica" font-size="67.2" fill="#FEFFFF" transform="matrix(1.00, 0.00, -0.00, -1.00, 99.3, 678.5)">I</text><text xml:space="preserve" font-family="Helvetica-Light,Helvetica" font-size="67.2" fill="#FEFFFF" transform="matrix(1.00, 0.00, -0.00, -1.00, 118.0, 678.5)">s</text><text xml:space="preserve" font-family="Helvetica-Light,Helvetica" font-size="67.2" fill="#FEFFFF" transform="matrix(1.00, 0.00, -0.00, -1.00, 151.6, 678.5)">o</text><text xml:space="preserve" font-family="Helvetica-Light,Helvetica" font-size="67.2" fill="#FEFFFF" transform="matrix(1.00, 0.00, -0.00, -1.00, 188.9, 678.5)">l</text><text xml:space="preserve" font-family="Helvetica-Light,Helvetica" font-size="67.2" fill="#FEFFFF" transform="matrix(1.00, 0.00, -0.00, -1.00, 203.9, 678.5)">a</text><text xml:space="preserve" font-family="Helvetica-Light,Helvetica" font-size="67.2" fill="#FEFFFF" transform="matrix(1.00, 0.00, -0.00, -1.00, 241.2, 678.5)">t</text><text xml:space="preserve" font-family="Helvetica-Light,Helvetica" font-size="67.2" fill="#FEFFFF" transform="matrix(1.00, 0.00, -0.00, -1.00, 259.9, 678.5)">i</text><text xml:space="preserve" font-family="Helvetica-Light,Helvetica" font-size="67.2" fill="#FEFFFF" transform="matrix(1.00, 0.00, -0.00, -1.00, 274.8, 678.5)">o</text><text xml:space="preserve" font-family="Helvetica-Light,Helvetica" font-size="67.2" fill="#FEFFFF" transform="matrix(1.00, 0.00, -0.00, -1.00, 312.2, 678.5)">n</text><text xml:space="preserve" font-family="Helvetica-Light,Helvetica" font-size="67.2" fill="#FEFFFF" transform="matrix(1.00, 0.00, -0.00, -1.00, 349.5, 678.5)"> </text><text xml:space="preserve" font-family="Helvetica-Light,Helvetica" font-size="67.2" fill="#FEFFFF" transform="matrix(1.00, 0.00, -0.00, -1.00, 368.2, 678.5)">w</text><text xml:space="preserve" font-family="Helvetica-Light,Helvetica" font-size="67.2" fill="#FEFFFF" transform="matrix(1.00, 0.00, -0.00, -1.00, 416.7, 678.5)">i</text><text xml:space="preserve" font-family="Helvetica-Light,Helvetica" font-size="67.2" fill="#FEFFFF" transform="matrix(1.00, 0.00, -0.00, -1.00, 431.7, 678.5)">t</text><text xml:space="preserve" font-family="Helvetica-Light,Helvetica" font-size="67.2" fill="#FEFFFF" transform="matrix(1.00, 0.00, -0.00, -1.00, 450.3, 678.5)">h</text><text xml:space="preserve" font-family="Helvetica-Light,Helvetica" font-size="67.2" fill="#FEFFFF" transform="matrix(1.00, 0.00, -0.00, -1.00, 487.7, 678.5)">i</text><text xml:space="preserve" font-family="Helvetica-Light,Helvetica" font-size="67.2" fill="#FEFFFF" transform="matrix(1.00, 0.00, -0.00, -1.00, 502.6, 678.5)">n</text><text xml:space="preserve" font-family="Helvetica-Light,Helvetica" font-size="67.2" fill="#FEFFFF" transform="matrix(1.00, 0.00, -0.00, -1.00, 540.0, 678.5)"> </text><text xml:space="preserve" font-family="Helvetica-Light,Helvetica" font-size="67.2" fill="#FEFFFF" transform="matrix(1.00, 0.00, -0.00, -1.00, 558.7, 678.5)">a</text><text xml:space="preserve" font-family="Helvetica-Light,Helvetica" font-size="67.2" fill="#FEFFFF" transform="matrix(1.00, 0.00, -0.00, -1.00, 596.0, 678.5)"> </text><text xml:space="preserve" font-family="Helvetica-Light,Helvetica" font-size="67.2" fill="#FEFFFF" transform="matrix(1.00, 0.00, -0.00, -1.00, 614.7, 678.5)">D</text><text xml:space="preserve" font-family="Helvetica-Light,Helvetica" font-size="67.2" fill="#FEFFFF" transform="matrix(1.00, 0.00, -0.00, -1.00, 663.2, 678.5)">a</text><text xml:space="preserve" font-family="Helvetica-Light,Helvetica" font-size="67.2" fill="#FEFFFF" transform="matrix(1.00, 0.00, -0.00, -1.00, 700.6, 678.5)">t</text><text xml:space="preserve" font-family="Helvetica-Light,Helvetica" font-size="67.2" fill="#FEFFFF" transform="matrix(1.00, 0.00, -0.00, -1.00, 719.3, 678.5)">a</text><text xml:space="preserve" font-family="Helvetica-Light,Helvetica" font-size="67.2" fill="#FEFFFF" transform="matrix(1.00, 0.00, -0.00, -1.00, 756.6, 678.5)">b</text><text xml:space="preserve" font-family="Helvetica-Light,Helvetica" font-size="67.2" fill="#FEFFFF" transform="matrix(1.00, 0.00, -0.00, -1.00, 797.7, 678.5)">a</text><text xml:space="preserve" font-family="Helvetica-Light,Helvetica" font-size="67.2" fill="#FEFFFF" transform="matrix(1.00, 0.00, -0.00, -1.00, 835.1, 678.5)">s</text><text xml:space="preserve" font-family="Helvetica-Light,Helvetica" font-size="67.2" fill="#FEFFFF" transform="matrix(1.00, 0.00, -0.00, -1.00, 868.7, 678.5)">e</text><text xml:space="preserve" font-family="Helvetica-Light,Helvetica" font-size="67.2" fill="#FEFFFF" transform="matrix(1.00, 0.00, -0.00, -1.00, 906.0, 678.5)">:</text><text xml:space="preserve" font-family="LucidaGrande,Lucida Grande" font-size="67.2" fill="#FEFFFF" transform="matrix(1.00, 0.00, -0.00, -1.00, 924.7, 678.5)"> </text><text xml:space="preserve" font-family="Helvetica-Light,Helvetica" font-size="67.2" fill="#FEFFFF" transform="matrix(1.00, 0.00, -0.00, -1.00, 322.7, 598.5)">T</text><text xml:space="preserve" font-family="Helvetica-Light,Helvetica" font-size="67.2" fill="#FEFFFF" transform="matrix(1.00, 0.00, -0.00, -1.00, 353.9, 598.5)">r</text><text xml:space="preserve" font-family="Helvetica-Light,Helvetica" font-size="67.2" fill="#FEFFFF" transform="matrix(1.00, 0.00, -0.00, -1.00, 376.3, 598.5)">a</text><text xml:space="preserve" font-family="Helvetica-Light,Helvetica" font-size="67.2" fill="#FEFFFF" transform="matrix(1.00, 0.00, -0.00, -1.00, 413.7, 598.5)">n</text><text xml:space="preserve" font-family="Helvetica-Light,Helvetica" font-size="67.2" fill="#FEFFFF" transform="matrix(1.00, 0.00, -0.00, -1.00, 451.0, 598.5)">s</text><text xml:space="preserve" font-family="Helvetica-Light,Helvetica" font-size="67.2" fill="#FEFFFF" transform="matrix(1.00, 0.00, -0.00, -1.00, 484.6, 598.5)">a</text><text xml:space="preserve" font-family="Helvetica-Light,Helvetica" font-size="67.2" fill="#FEFFFF" transform="matrix(1.00, 0.00, -0.00, -1.00, 522.0, 598.5)">c</text><text xml:space="preserve" font-family="Helvetica-Light,Helvetica" font-size="67.2" fill="#FEFFFF" transform="matrix(1.00, 0.00, -0.00, -1.00, 559.3, 598.5)">t</text><text xml:space="preserve" font-family="Helvetica-Light,Helvetica" font-size="67.2" fill="#FEFFFF" transform="matrix(1.00, 0.00, -0.00, -1.00, 578.0, 598.5)">i</text><text xml:space="preserve" font-family="Helvetica-Light,Helvetica" font-size="67.2" fill="#FEFFFF" transform="matrix(1.00, 0.00, -0.00, -1.00, 592.9, 598.5)">o</text><text xml:space="preserve" font-family="Helvetica-Light,Helvetica" font-size="67.2" fill="#FEFFFF" transform="matrix(1.00, 0.00, -0.00, -1.00, 630.3, 598.5)">n</text><text xml:space="preserve" font-family="Helvetica-Light,Helvetica" font-size="67.2" fill="#FEFFFF" transform="matrix(1.00, 0.00, -0.00, -1.00, 667.7, 598.5)">s</text><text xml:space="preserve" font-family="Monaco,Monaco" font-size="28.0" fill="#FEFFFE" transform="matrix(1.00, 0.00, -0.00, -1.00, 69.2, 414.2)">M</text><text xml:space="preserve" font-family="Monaco,Monaco" font-size="28.0" fill="#FEFFFE" transform="matrix(1.00, 0.00, -0.00, -1.00, 86.0, 414.2)">o</text><text xml:space="preserve" font-family="Monaco,Monaco" font-size="28.0" fill="#FEFFFE" transform="matrix(1.00, 0.00, -0.00, -1.00, 102.9, 414.2)">d</text><text xml:space="preserve" font-family="Monaco,Monaco" font-size="28.0" fill="#FEFFFE" transform="matrix(1.00, 0.00, -0.00, -1.00, 119.7, 414.2)">e</text><text xml:space="preserve" font-family="Monaco,Monaco" font-size="28.0" fill="#FEFFFE" transform="matrix(1.00, 0.00, -0.00, -1.00, 136.5, 414.2)">l</text><text xml:space="preserve" font-family="Monaco,Monaco" font-size="28.0" fill="#FEFFFE" transform="matrix(1.00, 0.00, -0.00, -1.00, 153.3, 414.2)">.</text><text xml:space="preserve" font-family="Monaco,Monaco" font-size="28.0" fill="#FEFFFE" transform="matrix(1.00, 0.00, -0.00, -1.00, 170.1, 414.2)">c</text><text xml:space="preserve" font-family="Monaco,Monaco" font-size="28.0" fill="#FEFFFE" transform="matrix(1.00, 0.00, -0.00, -1.00, 186.9, 414.2)">r</text><text xml:space="preserve" font-family="Monaco,Monaco" font-size="28.0" fill="#FEFFFE" transform="matrix(1.00, 0.00, -0.00, -1.00, 203.7, 414.2)">e</text><text xml:space="preserve" font-family="Monaco,Monaco" font-size="28.0" fill="#FEFFFE" transform="matrix(1.00, 0.00, -0.00, -1.00, 220.5, 414.2)">a</text><text xml:space="preserve" font-family="Monaco,Monaco" font-size="28.0" fill="#FEFFFE" transform="matrix(1.00, 0.00, -0.00, -1.00, 237.3, 414.2)">t</text><text xml:space="preserve" font-family="Monaco,Monaco" font-size="28.0" fill="#FEFFFE" transform="matrix(1.00, 0.00, -0.00, -1.00, 254.1, 414.2)">e</text><text xml:space="preserve" font-family="Monaco,Monaco" font-size="28.0" fill="#FEFFFE" transform="matrix(1.00, 0.00, -0.00, -1.00, 270.9, 414.2)">!</text><text xml:space="preserve" font-family="Monaco,Monaco" font-size="28.0" fill="#FEFFFE" transform="matrix(1.00, 0.00, -0.00, -1.00, 69.2, 345.2)">M</text><text xml:space="preserve" font-family="Monaco,Monaco" font-size="28.0" fill="#FEFFFE" transform="matrix(1.00, 0.00, -0.00, -1.00, 86.0, 345.2)">o</text><text xml:space="preserve" font-family="Monaco,Monaco" font-size="28.0" fill="#FEFFFE" transform="matrix(1.00, 0.00, -0.00, -1.00, 102.9, 345.2)">d</text><text xml:space="preserve" font-family="Monaco,Monaco" font-size="28.0" fill="#FEFFFE" transform="matrix(1.00, 0.00, -0.00, -1.00, 119.7, 345.2)">e</text><text xml:space="preserve" font-family="Monaco,Monaco" font-size="28.0" fill="#FEFFFE" transform="matrix(1.00, 0.00, -0.00, -1.00, 136.5, 345.2)">l</text><text xml:space="preserve" font-family="Monaco,Monaco" font-size="28.0" fill="#FEFFFE" transform="matrix(1.00, 0.00, -0.00, -1.00, 153.3, 345.2)">.</text><text xml:space="preserve" font-family="Monaco,Monaco" font-size="28.0" fill="#FEFFFE" transform="matrix(1.00, 0.00, -0.00, -1.00, 170.1, 345.2)">c</text><text xml:space="preserve" font-family="Monaco,Monaco" font-size="28.0" fill="#FEFFFE" transform="matrix(1.00, 0.00, -0.00, -1.00, 186.9, 345.2)">o</text><text xml:space="preserve" font-family="Monaco,Monaco" font-size="28.0" fill="#FEFFFE" transform="matrix(1.00, 0.00, -0.00, -1.00, 203.7, 345.2)">u</text><text xml:space="preserve" font-family="Monaco,Monaco" font-size="28.0" fill="#FEFFFE" transform="matrix(1.00, 0.00, -0.00, -1.00, 220.5, 345.2)">n</text><text xml:space="preserve" font-family="Monaco,Monaco" font-size="28.0" fill="#FEFFFE" transform="matrix(1.00, 0.00, -0.00, -1.00, 237.3, 345.2)">t</text><text xml:space="preserve" font-family="Monaco,Monaco" font-size="28.0" fill="#FEFFFE" transform="matrix(1.00, 0.00, -0.00, -1.00, 254.1, 345.2)">.</text><text xml:space="preserve" font-family="Monaco,Monaco" font-size="28.0" fill="#FEFFFE" transform="matrix(1.00, 0.00, -0.00, -1.00, 270.9, 345.2)">m</text><text xml:space="preserve" font-family="Monaco,Monaco" font-size="28.0" fill="#FEFFFE" transform="matrix(1.00, 0.00, -0.00, -1.00, 287.7, 345.2)">u</text><text xml:space="preserve" font-family="Monaco,Monaco" font-size="28.0" fill="#FEFFFE" transform="matrix(1.00, 0.00, -0.00, -1.00, 304.5, 345.2)">s</text><text xml:space="preserve" font-family="Monaco,Monaco" font-size="28.0" fill="#FEFFFE" transform="matrix(1.00, 0.00, -0.00, -1.00, 321.3, 345.2)">t</text><text xml:space="preserve" font-family="Monaco,Monaco" font-size="28.0" fill="#FEFFFE" transform="matrix(1.00, 0.00, -0.00, -1.00, 338.1, 345.2)">_</text><text xml:space="preserve" font-family="Monaco,Monaco" font-size="28.0" fill="#FEFFFE" transform="matrix(1.00, 0.00, -0.00, -1.00, 354.9, 345.2)">e</text><text xml:space="preserve" font-family="Monaco,Monaco" font-size="28.0" fill="#FEFFFE" transform="matrix(1.00, 0.00, -0.00, -1.00, 371.7, 345.2)">q</text><text xml:space="preserve" font-family="Monaco,Monaco" font-size="28.0" fill="#FEFFFE" transform="matrix(1.00, 0.00, -0.00, -1.00, 388.5, 345.2)">u</text><text xml:space="preserve" font-family="Monaco,Monaco" font-size="28.0" fill="#FEFFFE" transform="matrix(1.00, 0.00, -0.00, -1.00, 405.4, 345.2)">a</text><text xml:space="preserve" font-family="Monaco,Monaco" font-size="28.0" fill="#FEFFFE" transform="matrix(1.00, 0.00, -0.00, -1.00, 422.2, 345.2)">l</text><text xml:space="preserve" font-family="Monaco,Monaco" font-size="28.0" fill="#FEFFFE" transform="matrix(1.00, 0.00, -0.00, -1.00, 439.0, 345.2)"> </text><text xml:space="preserve" font-family="Monaco,Monaco" font-size="28.0" fill="#FEFFFE" transform="matrix(1.00, 0.00, -0.00, -1.00, 455.8, 345.2)">1</text><path d="M 0.4 -0.2 L 431.4 -0.2 L 431.4 211.8 L 0.4 211.8 Z M 0.0 0.0 " fill="none" stroke="#00F900" stroke-width="1.00" transform="matrix(1.00, 0.00, 0.00, -1.00, 546.1, 511.3)"></path><g><clipPath id="clip0x6000006b5c00"><path d="M 544.1 301.0 L 979.1 301.0 L 979.1 513.3 L 544.1 513.3 Z M 544.1 301.0 "></path></clipPath><g clip-path="url(#clip0x6000006b5c00)"><text xml:space="preserve" font-family="Helvetica-Light,Helvetica" font-size="28.0" fill="#00F900" transform="matrix(1.00, 0.00, -0.00, -1.00, 689.8, 478.7)">T</text><text xml:space="preserve" font-family="Helvetica-Light,Helvetica" font-size="28.0" fill="#00F900" transform="matrix(1.00, 0.00, -0.00, -1.00, 702.7, 478.7)">r</text><text xml:space="preserve" font-family="Helvetica-Light,Helvetica" font-size="28.0" fill="#00F900" transform="matrix(1.00, 0.00, -0.00, -1.00, 712.1, 478.7)">a</text><text xml:space="preserve" font-family="Helvetica-Light,Helvetica" font-size="28.0" fill="#00F900" transform="matrix(1.00, 0.00, -0.00, -1.00, 727.6, 478.7)">n</text><text xml:space="preserve" font-family="Helvetica-Light,Helvetica" font-size="28.0" fill="#00F900" transform="matrix(1.00, 0.00, -0.00, -1.00, 743.2, 478.7)">s</text><text xml:space="preserve" font-family="Helvetica-Light,Helvetica" font-size="28.0" fill="#00F900" transform="matrix(1.00, 0.00, -0.00, -1.00, 757.2, 478.7)">a</text><text xml:space="preserve" font-family="Helvetica-Light,Helvetica" font-size="28.0" fill="#00F900" transform="matrix(1.00, 0.00, -0.00, -1.00, 772.8, 478.7)">c</text><text xml:space="preserve" font-family="Helvetica-Light,Helvetica" font-size="28.0" fill="#00F900" transform="matrix(1.00, 0.00, -0.00, -1.00, 788.3, 478.7)">t</text><text xml:space="preserve" font-family="Helvetica-Light,Helvetica" font-size="28.0" fill="#00F900" transform="matrix(1.00, 0.00, -0.00, -1.00, 796.1, 478.7)">i</text><text xml:space="preserve" font-family="Helvetica-Light,Helvetica" font-size="28.0" fill="#00F900" transform="matrix(1.00, 0.00, -0.00, -1.00, 802.3, 478.7)">o</text><text xml:space="preserve" font-family="Helvetica-Light,Helvetica" font-size="28.0" fill="#00F900" transform="matrix(1.00, 0.00, -0.00, -1.00, 817.9, 478.7)">n</text></g></g><text xml:space="preserve" font-family="Monaco,Monaco" font-size="28.0" fill="#FEFFFE" transform="matrix(1.00, 0.00, -0.00, -1.00, 559.6, 414.2)">M</text><text xml:space="preserve" font-family="Monaco,Monaco" font-size="28.0" fill="#FEFFFE" transform="matrix(1.00, 0.00, -0.00, -1.00, 576.4, 414.2)">o</text><text xml:space="preserve" font-family="Monaco,Monaco" font-size="28.0" fill="#FEFFFE" transform="matrix(1.00, 0.00, -0.00, -1.00, 593.2, 414.2)">d</text><text xml:space="preserve" font-family="Monaco,Monaco" font-size="28.0" fill="#FEFFFE" transform="matrix(1.00, 0.00, -0.00, -1.00, 610.0, 414.2)">e</text><text xml:space="preserve" font-family="Monaco,Monaco" font-size="28.0" fill="#FEFFFE" transform="matrix(1.00, 0.00, -0.00, -1.00, 626.8, 414.2)">l</text><text xml:space="preserve" font-family="Monaco,Monaco" font-size="28.0" fill="#FEFFFE" transform="matrix(1.00, 0.00, -0.00, -1.00, 643.6, 414.2)">.</text><text xml:space="preserve" font-family="Monaco,Monaco" font-size="28.0" fill="#FEFFFE" transform="matrix(1.00, 0.00, -0.00, -1.00, 660.4, 414.2)">c</text><text xml:space="preserve" font-family="Monaco,Monaco" font-size="28.0" fill="#FEFFFE" transform="matrix(1.00, 0.00, -0.00, -1.00, 677.2, 414.2)">r</text><text xml:space="preserve" font-family="Monaco,Monaco" font-size="28.0" fill="#FEFFFE" transform="matrix(1.00, 0.00, -0.00, -1.00, 694.1, 414.2)">e</text><text xml:space="preserve" font-family="Monaco,Monaco" font-size="28.0" fill="#FEFFFE" transform="matrix(1.00, 0.00, -0.00, -1.00, 710.9, 414.2)">a</text><text xml:space="preserve" font-family="Monaco,Monaco" font-size="28.0" fill="#FEFFFE" transform="matrix(1.00, 0.00, -0.00, -1.00, 727.7, 414.2)">t</text><text xml:space="preserve" font-family="Monaco,Monaco" font-size="28.0" fill="#FEFFFE" transform="matrix(1.00, 0.00, -0.00, -1.00, 744.5, 414.2)">e</text><text xml:space="preserve" font-family="Monaco,Monaco" font-size="28.0" fill="#FEFFFE" transform="matrix(1.00, 0.00, -0.00, -1.00, 761.3, 414.2)">!</text><text xml:space="preserve" font-family="Monaco,Monaco" font-size="28.0" fill="#FEFFFE" transform="matrix(1.00, 0.00, -0.00, -1.00, 559.6, 345.2)">M</text><text xml:space="preserve" font-family="Monaco,Monaco" font-size="28.0" fill="#FEFFFE" transform="matrix(1.00, 0.00, -0.00, -1.00, 576.4, 345.2)">o</text><text xml:space="preserve" font-family="Monaco,Monaco" font-size="28.0" fill="#FEFFFE" transform="matrix(1.00, 0.00, -0.00, -1.00, 593.2, 345.2)">d</text><text xml:space="preserve" font-family="Monaco,Monaco" font-size="28.0" fill="#FEFFFE" transform="matrix(1.00, 0.00, -0.00, -1.00, 610.0, 345.2)">e</text><text xml:space="preserve" font-family="Monaco,Monaco" font-size="28.0" fill="#FEFFFE" transform="matrix(1.00, 0.00, -0.00, -1.00, 626.8, 345.2)">l</text><text xml:space="preserve" font-family="Monaco,Monaco" font-size="28.0" fill="#FEFFFE" transform="matrix(1.00, 0.00, -0.00, -1.00, 643.6, 345.2)">.</text><text xml:space="preserve" font-family="Monaco,Monaco" font-size="28.0" fill="#FEFFFE" transform="matrix(1.00, 0.00, -0.00, -1.00, 660.4, 345.2)">c</text><text xml:space="preserve" font-family="Monaco,Monaco" font-size="28.0" fill="#FEFFFE" transform="matrix(1.00, 0.00, -0.00, -1.00, 677.2, 345.2)">o</text><text xml:space="preserve" font-family="Monaco,Monaco" font-size="28.0" fill="#FEFFFE" transform="matrix(1.00, 0.00, -0.00, -1.00, 694.1, 345.2)">u</text><text xml:space="preserve" font-family="Monaco,Monaco" font-size="28.0" fill="#FEFFFE" transform="matrix(1.00, 0.00, -0.00, -1.00, 710.9, 345.2)">n</text><text xml:space="preserve" font-family="Monaco,Monaco" font-size="28.0" fill="#FEFFFE" transform="matrix(1.00, 0.00, -0.00, -1.00, 727.7, 345.2)">t</text><text xml:space="preserve" font-family="Monaco,Monaco" font-size="28.0" fill="#FEFFFE" transform="matrix(1.00, 0.00, -0.00, -1.00, 744.5, 345.2)">.</text><text xml:space="preserve" font-family="Monaco,Monaco" font-size="28.0" fill="#FEFFFE" transform="matrix(1.00, 0.00, -0.00, -1.00, 761.3, 345.2)">m</text><text xml:space="preserve" font-family="Monaco,Monaco" font-size="28.0" fill="#FEFFFE" transform="matrix(1.00, 0.00, -0.00, -1.00, 778.1, 345.2)">u</text><text xml:space="preserve" font-family="Monaco,Monaco" font-size="28.0" fill="#FEFFFE" transform="matrix(1.00, 0.00, -0.00, -1.00, 794.9, 345.2)">s</text><text xml:space="preserve" font-family="Monaco,Monaco" font-size="28.0" fill="#FEFFFE" transform="matrix(1.00, 0.00, -0.00, -1.00, 811.7, 345.2)">t</text><text xml:space="preserve" font-family="Monaco,Monaco" font-size="28.0" fill="#FEFFFE" transform="matrix(1.00, 0.00, -0.00, -1.00, 828.5, 345.2)">_</text><text xml:space="preserve" font-family="Monaco,Monaco" font-size="28.0" fill="#FEFFFE" transform="matrix(1.00, 0.00, -0.00, -1.00, 845.3, 345.2)">e</text><text xml:space="preserve" font-family="Monaco,Monaco" font-size="28.0" fill="#FEFFFE" transform="matrix(1.00, 0.00, -0.00, -1.00, 862.1, 345.2)">q</text><text xml:space="preserve" font-family="Monaco,Monaco" font-size="28.0" fill="#FEFFFE" transform="matrix(1.00, 0.00, -0.00, -1.00, 878.9, 345.2)">u</text><text xml:space="preserve" font-family="Monaco,Monaco" font-size="28.0" fill="#FEFFFE" transform="matrix(1.00, 0.00, -0.00, -1.00, 895.7, 345.2)">a</text><text xml:space="preserve" font-family="Monaco,Monaco" font-size="28.0" fill="#FEFFFE" transform="matrix(1.00, 0.00, -0.00, -1.00, 912.5, 345.2)">l</text><text xml:space="preserve" font-family="Monaco,Monaco" font-size="28.0" fill="#FEFFFE" transform="matrix(1.00, 0.00, -0.00, -1.00, 929.3, 345.2)"> </text><text xml:space="preserve" font-family="Monaco,Monaco" font-size="28.0" fill="#FEFFFE" transform="matrix(1.00, 0.00, -0.00, -1.00, 946.1, 345.2)">1</text></g></svg>